<?xml version="1.0" encoding="UTF-8" standalone="no"?>
<!-- Generator: Adobe Illustrator 16.0.4, SVG Export Plug-In . SVG Version: 6.00 Build 0)  -->

<svg
   xmlns:dc="http://purl.org/dc/elements/1.1/"
   xmlns:cc="http://creativecommons.org/ns#"
   xmlns:rdf="http://www.w3.org/1999/02/22-rdf-syntax-ns#"
   xmlns:svg="http://www.w3.org/2000/svg"
   xmlns="http://www.w3.org/2000/svg"
   xmlns:sodipodi="http://sodipodi.sourceforge.net/DTD/sodipodi-0.dtd"
   xmlns:inkscape="http://www.inkscape.org/namespaces/inkscape"
   version="1.1"
   id="Layer_1"
   x="0px"
   y="0px"
   width="739.09003"
   height="242.89999"
   viewBox="0 0 739.09003 242.89999"
   xml:space="preserve"
   inkscape:version="0.48.4 r9939"
   sodipodi:docname="uwacrest-blue.svg"><metadata
     id="metadata229"><rdf:RDF><cc:Work
         rdf:about=""><dc:format>image/svg+xml</dc:format><dc:type
           rdf:resource="http://purl.org/dc/dcmitype/StillImage" /></cc:Work></rdf:RDF></metadata><defs
     id="defs227" /><sodipodi:namedview
     pagecolor="#ffffff"
     bordercolor="#666666"
     borderopacity="1"
     objecttolerance="10"
     gridtolerance="10"
     guidetolerance="10"
     inkscape:pageopacity="0"
     inkscape:pageshadow="2"
     inkscape:window-width="939"
     inkscape:window-height="480"
     id="namedview225"
     showgrid="false"
     inkscape:zoom="0.5"
     inkscape:cx="306.97865"
     inkscape:cy="113.87197"
     inkscape:window-x="1831"
     inkscape:window-y="93"
     inkscape:window-maximized="0"
     inkscape:current-layer="Layer_1" /><style
     type="text/css"
     id="style3">
	.st0{fill:#244397;}
	.st1{fill:#FFFFFF;}
	.st2{fill-rule:evenodd;clip-rule:evenodd;fill:#FFFFFF;}
	.st3{fill:#DCAF2A;}
</style><g
     id="g3206"
     transform="matrix(0.99999902,0,0,0.99997228,-242.30054,-284.92228)"><path
       id="path5"
       d="m 434.11035,454.625 c -18.2041,29.82715 -49.85156,47.62402 -84.77832,47.62402 -34.92676,0 -66.57519,-17.79687 -84.77734,-47.625 l -19.07324,17.63965 c 10.65234,15.93457 24.90039,29.32617 41.5205,38.91895 18.86914,10.89453 40.42578,16.65429 62.33008,16.65429 21.90235,0 43.45508,-5.75976 62.33203,-16.65429 16.13965,-9.31543 30.53321,-23.98926 41.08008,-39.3252 L 434.11035,454.625 z"
       class="st0"
       inkscape:connector-curvature="0"
       style="fill:#244397" /><rect
       id="rect7"
       height="6.277832"
       width="165.2832"
       class="st3"
       y="284.93018"
       x="266.69141"
       style="fill:#dcaf2a" /><path
       id="path9"
       d="m 431.97461,351.07568 c -0.31445,18.43165 4.01758,91.57764 -82.64063,142.75342 -86.66015,-51.17578 -82.32812,-124.32177 -82.64257,-142.75342 v -59.86767 h 165.2832 v 59.86767 z"
       class="st0"
       inkscape:connector-curvature="0"
       style="fill:#244397" /><path
       id="path11"
       d="m 277.61523,415.31738 c 10.49024,25.73633 31.11719,54.53516 71.71875,78.51172 40.60157,-23.97656 61.22852,-52.77539 71.7168,-78.51172 l -71.71875,-66.3247 -71.7168,66.3247 z"
       class="st3"
       inkscape:connector-curvature="0"
       style="fill:#dcaf2a" /><path
       id="path13"
       d="m 335.86719,307.55371 c 0,10.62402 0,21.24512 0,31.87012 -8.55664,-3.14063 -18.87305,-0.63867 -24.34766,3.39258 0,-10.52442 0,-21.05274 0,-31.57422 4.80859,-4.6836 16.14258,-6.77637 24.34766,-3.68848 z"
       class="st2"
       inkscape:connector-curvature="0"
       style="fill:#ffffff;fill-rule:evenodd" /><path
       id="path15"
       d="m 284.81641,307.63721 c 0,10.62402 0,21.24511 0,31.87011 8.55078,-3.14062 18.86914,-0.63867 24.3457,3.39258 0,-10.52441 0,-21.05273 0,-31.57422 -4.80664,-4.68359 -16.14063,-6.77636 -24.3457,-3.68847 z"
       class="st2"
       inkscape:connector-curvature="0"
       style="fill:#ffffff;fill-rule:evenodd" /><path
       id="path17"
       d="m 343.20312,332.91504 -0.0703,-0.0107 c -1.22363,-0.13135 -2.15722,-0.20118 -2.79297,-0.23828 v -10.39454 c 0.6211,0.0366 1.52832,0.10498 2.72266,0.23243 l 0.14062,0.004 c 2.44336,0.11035 2.7793,-1.13574 2.7793,-1.13574 -0.55469,-1.28906 -1.78711,-1.87109 -2.7793,-1.95215 l -0.0703,-0.008 c -1.22363,-0.13232 -2.15722,-0.20312 -2.79297,-0.24072 v -8.77979 h -2.16211 v 32.04395 c -11.77539,-2.51367 -20.67578,-1.21875 -27.84179,4.03906 -7.16211,-5.25781 -16.0625,-6.55078 -27.83789,-4.03906 v -32.0439 h -2.16211 v 8.7793 c -0.4541,0.0268 -1.05371,0.0688 -1.81446,0.13965 v -0.32617 c 0,-0.24415 -0.19921,-0.44336 -0.48242,-0.44141 l -2.9375,0.31738 c -0.23633,0.0156 -0.41992,0.20606 -0.41992,0.44629 v 3.75781 c 0,0.24512 0.20117,0.44239 0.50391,0.43457 l 2.92578,-0.28613 c 0.22656,-0.0225 0.41015,-0.21777 0.41015,-0.44727 v -0.35742 c 0.76075,-0.0718 1.36133,-0.11377 1.81446,-0.13965 v 10.39747 c -0.45411,0.0269 -1.05371,0.0693 -1.81446,0.14062 v -0.33203 c 0,-0.24414 -0.19922,-0.43848 -0.48242,-0.43848 l -2.9375,0.31836 c -0.23633,0.0117 -0.41992,0.20606 -0.41992,0.4502 v 3.75 c 0,0.24414 0.20117,0.44433 0.50391,0.43847 l 2.92578,-0.29589 c 0.22656,-0.0147 0.41015,-0.20704 0.41015,-0.44141 v -0.35547 c 0.76074,-0.0713 1.36133,-0.11328 1.81446,-0.13916 v 9.38428 l 1.32812,-0.3086 c 12.12305,-2.82617 21.02344,-1.60449 28.00586,3.84082 l 0.66602,0.52686 0.66992,-0.52686 c 6.98047,-5.44531 15.88281,-6.66601 28.00781,-3.84082 l 1.32617,0.3086 v -9.38184 c 0.6211,0.0366 1.52832,0.10449 2.72266,0.23242 l 0.14062,0.006 c 2.44336,0.11035 2.7793,-1.13672 2.7793,-1.13672 -0.55469,-1.28808 -1.78711,-1.87011 -2.7793,-1.95019 z"
       class="st1"
       inkscape:connector-curvature="0"
       style="fill:#ffffff" /><g
       id="g19"><path
         id="path21"
         d="m 282.06934,496.37353 c -1.15577,1.4961 -3.1045,1.73536 -5.18213,0.12989 -1.11719,-0.86231 -1.82422,-1.78809 -2.2544,-2.55664 l 1.11035,-1.43653 c 0.083,-0.10693 0.21143,-0.10205 0.34473,0.0195 l 0.67627,0.59815 c 0.0469,0.0366 0.0884,0.10644 0.0361,0.19873 l -0.47168,0.65967 c 0.45655,0.56152 0.96045,1.06445 1.33985,1.35791 1.08105,0.83447 2.20849,1.11767 2.97021,0.13232 0.81641,-1.05713 0.57813,-1.58252 -0.74658,-3.64892 -0.94482,-1.52637 -1.33642,-2.90918 -0.31787,-4.22754 1.14648,-1.48438 3.03613,-1.59864 5.04346,-0.0479 0.73584,0.56836 1.38183,1.18116 1.91797,1.86133 l -1.20166,1.55518 c -0.082,0.10742 -0.21143,0.10254 -0.34522,-0.0195 l -0.67529,-0.59815 c -0.0479,-0.0366 -0.0889,-0.10644 -0.0357,-0.19824 l 0.47119,-0.65967 c -0.29297,-0.28369 -0.59521,-0.55517 -0.89209,-0.78418 -1.10449,-0.85302 -2.22314,-0.90234 -2.85644,-0.083 -0.66016,0.85498 -0.3999,1.54931 0.77685,3.38818 1.23926,1.90527 1.20996,3.17187 0.292,4.35937 z"
         class="st1"
         inkscape:connector-curvature="0"
         style="fill:#ffffff" /><path
         id="path23"
         d="m 293.58203,505.10107 c 0.0649,0.0376 0.0811,0.0996 0.0435,0.16407 l -0.93018,1.57714 -6.26855,-3.69384 c -0.10254,-0.061 -0.10938,-0.16895 -0.0205,-0.29102 l 0.41992,-0.62305 c 0.023,-0.0386 0.0796,-0.0752 0.16504,-0.0425 l 0.38965,0.19483 4.75195,-8.06543 -0.38525,-0.26221 c -0.0903,-0.0532 -0.0767,-0.1665 0.005,-0.27539 l 0.41992,-0.62305 c 0.0376,-0.0645 0.0991,-0.0811 0.16406,-0.0425 l 6.04883,3.56397 -0.9292,1.57714 c -0.061,0.10352 -0.16846,0.10938 -0.28955,0.0205 l -0.625,-0.41992 c -0.0381,-0.023 -0.0747,-0.0791 -0.0415,-0.16406 l 0.19482,-0.39014 -3.21875,-1.89648 -1.80469,3.06348 3.64551,2.14746 -0.70166,1.18945 -3.64453,-2.14795 -1.98731,3.37354 3.43799,2.02587 0.26172,-0.38525 c 0.0537,-0.0903 0.16602,-0.0762 0.27539,0.005 l 0.62305,0.41992 z"
         class="st1"
         inkscape:connector-curvature="0"
         style="fill:#ffffff" /><path
         id="path25"
         d="m 306.70898,511.23437 c 0.0688,0.0298 0.0928,0.0889 0.0635,0.15772 l -0.72559,1.68115 -6.6831,-2.88232 c -0.11035,-0.0478 -0.12891,-0.1543 -0.0562,-0.28613 l 0.33838,-0.6709 c 0.0176,-0.041 0.0693,-0.0845 0.15771,-0.0625 l 0.41113,0.14453 3.70899,-8.59815 -0.41553,-0.21191 c -0.0967,-0.0415 -0.0962,-0.15576 -0.0283,-0.27393 l 0.33789,-0.67138 c 0.0298,-0.0688 0.0889,-0.0923 0.15772,-0.0625 l 6.44873,2.78125 -0.7251,1.68115 c -0.0474,0.11035 -0.1543,0.12988 -0.28565,0.0566 l -0.67089,-0.33838 c -0.0415,-0.0181 -0.0845,-0.0693 -0.063,-0.1582 l 0.14453,-0.41162 -3.43066,-1.4795 -1.4087,3.26612 3.88526,1.67529 -0.54639,1.26807 -3.88574,-1.67627 -1.55127,3.59668 3.66504,1.58105 0.21289,-0.41553 c 0.0415,-0.0962 0.15527,-0.0962 0.27344,-0.0288 l 0.67089,0.33837 z"
         class="st1"
         inkscape:connector-curvature="0"
         style="fill:#ffffff" /><path
         id="path27"
         d="m 324.49463,506.70068 c 0.11523,0.0322 0.14844,0.13526 0.0937,0.2754 l -0.24707,0.70996 c -0.0122,0.043 -0.0571,0.0928 -0.14746,0.083 l -0.42627,-0.0889 -4.69776,2.79199 2.06006,6.18945 0.4253,0.15039 c 0.10107,0.0288 0.11572,0.14209 0.0644,0.26758 l -0.2461,0.70996 c -0.0205,0.0723 -0.0757,0.10352 -0.14794,0.083 l -1.54444,-0.43457 -2.03369,-6.12012 -1.30762,0.77002 -0.84082,2.98877 0.43897,0.15479 c 0.10107,0.0283 0.1167,0.14209 0.0654,0.26758 l -0.24707,0.70996 c -0.0205,0.0718 -0.0757,0.10302 -0.14746,0.083 l -2.46924,-0.69482 c -0.11523,-0.0322 -0.14844,-0.13574 -0.0937,-0.27588 l 0.24609,-0.70996 c 0.0132,-0.043 0.0576,-0.0928 0.14844,-0.0825 l 0.42627,0.0889 2.53613,-9.00977 -0.43896,-0.15527 c -0.10156,-0.0283 -0.1167,-0.1416 -0.0654,-0.26758 l 0.24707,-0.70996 c 0.0205,-0.0723 0.0757,-0.10303 0.14697,-0.083 l 2.46924,0.69531 c 0.11523,0.0322 0.14941,0.13477 0.0942,0.27539 l -0.24658,0.70997 c -0.0122,0.0435 -0.0576,0.0928 -0.14795,0.083 l -0.42676,-0.0889 -1.13379,4.02832 4.91602,-2.96387 -0.43897,-0.15479 c -0.10058,-0.0283 -0.11572,-0.1416 -0.0644,-0.26757 l 0.24609,-0.70996 c 0.0205,-0.0723 0.0757,-0.10303 0.14844,-0.083 l 2.78662,0.78466 z"
         class="st1"
         inkscape:connector-curvature="0"
         style="fill:#ffffff" /><path
         id="path29"
         d="m 350.92627,509.76123 c 0.12012,0.006 0.1748,0.0991 0.15234,0.24854 l -0.0845,0.74658 c -0.002,0.0454 -0.0347,0.10351 -0.12598,0.11377 l -0.42089,0.008 -3.05274,9.83398 c -0.10693,0.32471 -0.38672,0.50586 -0.71582,0.48828 l -1.16748,-0.10595 c -0.16455,-0.008 -0.21875,-0.1167 -0.25537,-0.28369 l -1.58057,-8.87354 -0.0161,-9.8e-4 -2.44433,8.27295 c -0.0908,0.2959 -0.30762,0.70508 -0.83155,0.66309 l -1.12207,-0.10401 c -0.13476,-0.007 -0.22021,-0.0864 -0.25488,-0.28369 l -1.92725,-10.30371 -0.44726,-0.0537 c -0.10596,-0.006 -0.14551,-0.11279 -0.12354,-0.24707 l 0.084,-0.74658 c 0.004,-0.0752 0.0518,-0.11768 0.12695,-0.11377 l 2.47266,0.12891 c 0.12011,0.006 0.17529,0.0996 0.15234,0.24853 l -0.084,0.74707 c -0.002,0.0449 -0.0361,0.10303 -0.12647,0.11377 l -0.42139,0.008 1.46338,8.8374 0.0142,9.8e-4 2.62305,-9.07568 c 0.14697,-0.51807 0.41113,-0.68457 0.76953,-0.65088 l 0.85205,0.0898 c 0.14893,0.023 0.20508,0.10108 0.23975,0.29785 l 1.67529,9.65967 0.0147,9.8e-4 2.46484,-8.63232 -0.44775,-0.0532 c -0.10596,-0.006 -0.14551,-0.11328 -0.12354,-0.24707 l 0.084,-0.74707 c 0.004,-0.0752 0.0518,-0.11719 0.12695,-0.11328 l 2.45752,0.12793 z"
         class="st1"
         inkscape:connector-curvature="0"
         style="fill:#ffffff" /><path
         id="path31"
         d="m 360.32861,519.54932 c 0.10401,-0.008 0.15772,0.0923 0.1543,0.22802 l 0.0186,0.75147 c 0.006,0.0747 -0.0351,0.12305 -0.10937,0.12988 l -2.55615,0.21484 c -0.12012,0.01 -0.18653,-0.0742 -0.18506,-0.22558 l -0.0181,-0.75098 c -0.003,-0.0449 0.021,-0.10742 0.10938,-0.12939 l 0.43066,-0.0669 -0.78418,-9.32617 -0.4668,0.009 c -0.10498,0.009 -0.15722,-0.0918 -0.15429,-0.22754 l -0.0181,-0.75147 c -0.006,-0.0747 0.0342,-0.12304 0.10938,-0.12939 l 2.55615,-0.21533 c 0.12012,-0.01 0.18652,0.0747 0.18408,0.2251 l 0.0186,0.75146 c 0.003,0.0444 -0.0205,0.10693 -0.10987,0.1294 l -0.43115,0.0664 0.78516,9.32666 0.46679,-0.009 z"
         class="st1"
         inkscape:connector-curvature="0"
         style="fill:#ffffff" /><path
         id="path33"
         d="m 374.48389,515.229 c 0.35742,1.85547 -0.75147,3.47461 -3.32862,3.97071 -1.38525,0.2666 -2.54589,0.18457 -3.40673,-9.8e-4 l -0.34278,-1.78223 c -0.0249,-0.13232 0.0635,-0.22558 0.24268,-0.24511 l 0.89551,-0.11133 c 0.0586,-0.0112 0.13769,0.004 0.17187,0.10449 l 0.1836,0.78955 c 0.72265,0.0288 1.43261,-0.0161 1.9038,-0.10693 1.34034,-0.2583 2.29786,-0.91602 2.06202,-2.13868 -0.25244,-1.31054 -0.8042,-1.479 -3.22803,-1.85253 -1.76856,-0.30079 -3.06445,-0.92188 -3.3794,-2.55665 -0.354,-1.84082 0.80957,-3.333 3.29883,-3.8125 0.91358,-0.17578 1.79883,-0.25439 2.66309,-0.20703 l 0.37207,1.9292 c 0.0249,0.13233 -0.0644,0.22608 -0.24365,0.24561 l -0.89453,0.11133 c -0.0586,0.0112 -0.13868,-0.004 -0.17334,-0.1045 l -0.18213,-0.78955 c -0.40674,0.0322 -0.80957,0.0796 -1.17823,0.15039 -1.36865,0.26368 -2.1455,1.06983 -1.9497,2.08594 0.2041,1.06104 0.89599,1.32471 3.05322,1.65772 2.24804,0.33056 3.17675,1.19043 3.46045,2.66308 z"
         class="st1"
         inkscape:connector-curvature="0"
         style="fill:#ffffff" /><path
         id="path35"
         d="m 382.08594,504.3208 c 4.4082,-1.48096 6.27148,0.25049 7.39013,3.57813 1.38916,4.13769 -0.11377,6.25683 -3.93847,7.5415 l -3.01416,1.01318 c -0.11328,0.0381 -0.19971,-0.0283 -0.23291,-0.1748 l -0.1958,-0.72559 c -0.0151,-0.043 -0.006,-0.10937 0.0747,-0.15185 l 0.40381,-0.16699 -2.98193,-8.87256 -0.45069,0.11963 c -0.0991,0.0332 -0.1748,-0.0518 -0.2041,-0.18457 l -0.19531,-0.72559 c -0.0244,-0.0708 0.003,-0.12793 0.0747,-0.15186 l 3.27002,-1.09863 z m 3.41992,9.70654 c 3.01416,-1.01318 3.01367,-3.32275 2.2539,-5.58398 -0.84082,-2.50244 -1.99609,-3.96533 -5.26757,-2.8667 l -1.23682,0.41553 2.85742,8.50342 1.39307,-0.46827 z"
         class="st1"
         inkscape:connector-curvature="0"
         style="fill:#ffffff" /><path
         id="path37"
         d="m 403.54346,501.39795 c 1.7832,3.55127 1.07666,6.0542 -1.5503,7.37305 -2.59961,1.30566 -5.083,0.33691 -6.83935,-3.16114 -1.26563,-2.51953 -1.69971,-5.75781 1.57031,-7.3999 2.80127,-1.40625 5.24512,0.0518 6.81934,3.18799 z m -6.80762,3.38476 c 0.88037,1.75586 2.42725,3.83204 4.62549,2.72852 1.82275,-0.91504 1.83252,-2.8667 0.58789,-5.34619 -0.90186,-1.79639 -2.45508,-3.78516 -4.61328,-2.70166 -2.19727,1.10351 -1.47559,3.57715 -0.6001,5.31933 z"
         class="st1"
         inkscape:connector-curvature="0"
         style="fill:#ffffff" /><path
         id="path39"
         d="m 421.60254,495.06396 c 0.0859,-0.0605 0.1831,-9.7e-4 0.25,0.11768 l 0.39746,0.6377 c 0.0435,0.061 0.0327,0.12402 -0.0288,0.16748 l -2.0542,1.45898 c -0.0976,0.0693 -0.19971,0.0308 -0.27344,-0.10059 l -0.39795,-0.63672 c -0.0264,-0.0371 -0.0361,-0.10351 0.0293,-0.16748 l 0.32471,-0.26806 -4.28662,-5.74951 1.55371,7.2124 c 0.0562,0.23535 0.0557,0.49316 -0.12695,0.62353 -0.13526,0.0957 -0.34327,0.24317 -0.47413,0.31788 -0.14306,0.0835 -0.24169,0.0991 -0.36914,0.0234 l -6.53955,-3.94775 3.99268,5.95801 0.39746,-0.24414 c 0.0859,-0.061 0.1831,-10e-4 0.24756,0.11718 l 0.39892,0.6377 c 0.043,0.061 0.0327,0.12353 -0.0278,0.16748 l -2.00635,1.42383 c -0.0976,0.0693 -0.1997,0.0312 -0.27343,-0.0996 l -0.39795,-0.6377 c -0.0264,-0.0366 -0.0352,-0.10302 0.0293,-0.16699 l 0.33594,-0.27637 -5.1499,-7.82226 -0.38428,0.23584 c -0.085,0.061 -0.1831,10e-4 -0.24902,-0.11719 l -0.39795,-0.63769 c -0.043,-0.061 -0.0322,-0.12354 0.0283,-0.16748 l 1.46778,-1.042 c 0.0615,-0.0435 0.12402,-0.0327 0.18261,-0.001 l 7.69531,4.61719 -1.90381,-8.6377 c -0.0288,-0.14502 0.006,-0.2251 0.11573,-0.30322 l 1.52832,-1.08594 c 0.0986,-0.0693 0.1997,-0.0308 0.27344,0.10059 l 0.39843,0.6372 c 0.0259,0.0366 0.0366,0.10303 -0.0278,0.16748 l -0.3374,0.27637 5.67627,7.44873 0.3833,-0.23682 z"
         class="st1"
         inkscape:connector-curvature="0"
         style="fill:#ffffff" /></g><g
       id="g41"><g
         id="g43"><path
           id="path45"
           d="m 250.17578,463.62598 12.15234,-11.22657 2.75782,-2.5957 1.53906,2.54688 c 2.65039,4.39453 5.60547,8.51757 8.81445,12.36132 l 4.12305,-3.75 c -5.58985,-6.74414 -10.15234,-14.32031 -13.49805,-22.53515 -1.26172,-3.0957 -2.33203,-6.25 -3.21679,-9.44531 l -6.61133,16.97461 -13.93555,1.95117 c 0.0215,0.0586 0.043,0.11719 0.0644,0.17187 l 7.81055,15.54688 z"
           class="st0"
           inkscape:connector-curvature="0"
           style="fill:#244397" /></g></g><g
       id="g47"><path
         id="path49"
         d="m 413.95117,307.55371 c 0,10.62402 0,21.24512 0,31.87012 -8.55664,-3.14063 -18.87305,-0.63867 -24.34765,3.39258 0,-10.52442 0,-21.05274 0,-31.57422 4.80859,-4.6836 16.14257,-6.77637 24.34765,-3.68848 z"
         class="st2"
         inkscape:connector-curvature="0"
         style="fill:#ffffff;fill-rule:evenodd" /><path
         id="path51"
         d="m 362.90039,307.63721 c 0,10.62402 0,21.24511 0,31.87011 8.55078,-3.14062 18.86914,-0.63867 24.3457,3.39258 0,-10.52441 0,-21.05273 0,-31.57422 -4.80664,-4.68359 -16.14062,-6.77636 -24.3457,-3.68847 z"
         class="st2"
         inkscape:connector-curvature="0"
         style="fill:#ffffff;fill-rule:evenodd" /><path
         id="path53"
         d="m 421.28711,332.91504 -0.0703,-0.0107 c -1.22364,-0.13135 -2.15723,-0.20118 -2.79297,-0.23828 v -10.39454 c 0.62109,0.0366 1.52832,0.10498 2.72265,0.23243 l 0.14063,0.004 c 2.44336,0.11035 2.7793,-1.13574 2.7793,-1.13574 -0.55469,-1.28906 -1.78711,-1.87109 -2.7793,-1.95215 l -0.0703,-0.008 c -1.22364,-0.13232 -2.15723,-0.20312 -2.79297,-0.24072 v -8.77979 h -2.16211 v 32.04395 c -11.77539,-2.51367 -20.67578,-1.21875 -27.8418,4.03906 -7.16211,-5.25781 -16.0625,-6.55078 -27.83789,-4.03906 v -32.0439 h -2.16211 v 8.7793 c -0.4541,0.0268 -1.05371,0.0688 -1.81445,0.13965 v -0.32617 c 0,-0.24415 -0.19922,-0.44336 -0.48242,-0.44141 l -2.9375,0.31738 c -0.23633,0.0156 -0.41993,0.20606 -0.41993,0.44629 v 3.75781 c 0,0.24512 0.20118,0.44239 0.50391,0.43457 l 2.92578,-0.28613 c 0.22656,-0.0225 0.41016,-0.21777 0.41016,-0.44727 v -0.35742 c 0.76074,-0.0718 1.36133,-0.11377 1.81445,-0.13965 v 10.39747 c -0.4541,0.0269 -1.05371,0.0693 -1.81445,0.14062 v -0.33203 c 0,-0.24414 -0.19922,-0.43848 -0.48242,-0.43848 l -2.9375,0.31836 c -0.23633,0.0117 -0.41993,0.20606 -0.41993,0.4502 v 3.75 c 0,0.24414 0.20118,0.44433 0.50391,0.43847 l 2.92578,-0.29589 c 0.22656,-0.0147 0.41016,-0.20704 0.41016,-0.44141 v -0.35547 c 0.76074,-0.0713 1.36132,-0.11328 1.81445,-0.13916 v 9.38428 l 1.32812,-0.3086 c 12.12305,-2.82617 21.02344,-1.60449 28.00586,3.84082 l 0.66602,0.52686 0.66992,-0.52686 c 6.98047,-5.44531 15.88281,-6.66601 28.00781,-3.84082 l 1.32618,0.3086 v -9.38184 c 0.62109,0.0366 1.52832,0.10449 2.72265,0.23242 l 0.14063,0.006 c 2.44336,0.11035 2.77929,-1.13672 2.77929,-1.13672 -0.55468,-1.28808 -1.7871,-1.87011 -2.77929,-1.95019 z"
         class="st1"
         inkscape:connector-curvature="0"
         style="fill:#ffffff" /></g><g
       id="g55"><g
         id="g57"><path
           id="path59"
           d="m 448.38574,463.62598 -12.15234,-11.22657 -2.75781,-2.5957 -1.53907,2.54688 c -2.65039,4.39453 -5.60547,8.51757 -8.81445,12.36132 l -4.12305,-3.75 c 5.58985,-6.74414 10.15235,-14.32031 13.49805,-22.53515 1.26172,-3.0957 2.33203,-6.25 3.2168,-9.44531 l 6.61133,16.97461 13.93554,1.95117 c -0.0215,0.0586 -0.043,0.11719 -0.0645,0.17187 l -7.81055,15.54688 z"
           class="st0"
           inkscape:connector-curvature="0"
           style="fill:#244397" /></g></g><g
       id="g61"><g
         id="g63"><path
           id="path65"
           d="m 353.53711,440.77832 c 4.8789,2.43945 9.0625,3.64648 11.5918,3.48437 0.0762,-0.004 0.26171,-0.008 0.33984,-0.0117 0.86523,-0.0625 1.98047,-0.30274 2.8125,-0.80469 0.75781,-0.45508 1.26172,-0.93946 1.69336,-1.56446 0.5,-0.73437 0.7168,-1.35742 0.75781,-2.13476 -0.3164,0.12109 -0.63086,0.2168 -0.92383,0.29101 -0.0781,0.0195 -0.26953,0.0567 -0.34765,0.0742 -2.83399,0.44336 -6.38086,0.0586 -11.27539,-1.26757 -0.79883,0.89843 -2.44727,1.39843 -4.19922,0.98046 -0.14649,0.32813 -0.29492,0.63868 -0.44922,0.95313 z"
           class="st1"
           inkscape:connector-curvature="0"
           style="fill:#ffffff" /><path
           id="path67"
           d="m 360.4707,414.00098 c -0.12695,0.30859 -0.26367,0.60351 -0.43359,0.90625 -0.72852,1.26172 -1.72852,2.20117 -2.73633,2.69726 0.0117,0.32227 0.0156,0.64453 0.0195,0.97071 2.09961,-0.91407 4.23047,-1.96485 6.35156,-3.10547 7.8711,-4.21875 13.42383,-8.90869 15.14649,-12.24561 0.043,-0.0801 0.14844,-0.26953 0.1875,-0.35156 0.46875,-0.90039 0.89062,-2.16602 0.89062,-3.30273 0,-1.92969 -0.82031,-3.61133 -2.05469,-4.51172 -1.62695,3.78125 -4.60742,8.0625 -8.68945,12.06933 -2.76953,2.72315 -5.73632,5.04541 -8.68164,6.87354 z"
           class="st1"
           inkscape:connector-curvature="0"
           style="fill:#ffffff" /><path
           id="path69"
           d="m 359.4082,433.87012 c -0.6914,0.75781 -1.89062,1.45507 -3.29883,1.58007 -0.28515,0.0234 -0.54101,0.0391 -0.81445,0.0312 -0.082,0.28711 -0.16992,0.56641 -0.26367,0.84766 7.07617,1.97656 12.98828,2.40234 16.01367,1.43164 0.0742,-0.0195 0.26563,-0.0742 0.33985,-0.0976 0.87109,-0.2793 1.94726,-0.81446 2.67187,-1.53516 0.65625,-0.66211 1.05078,-1.28125 1.33203,-2.03711 0.32227,-0.86914 0.2168,-1.61133 0.2168,-1.61133 -0.29688,0.20703 -1.77149,0.6836 -1.77149,0.6836 -2.77343,1.00976 -7.51171,1.21679 -14.42578,0.70703 z"
           class="st1"
           inkscape:connector-curvature="0"
           style="fill:#ffffff" /><path
           id="path71"
           d="m 379.37305,415.51465 c -2.61133,2.87109 -9.3418,6.06054 -18.25977,8.20508 -0.57031,0.91211 -1.62891,1.75586 -2.97852,2.24609 -0.38867,0.14453 -0.77929,0.24609 -1.1582,0.31445 -0.0351,0.30274 -0.0723,0.58594 -0.10742,0.88477 0.70312,-0.0234 1.4043,-0.0566 2.11133,-0.0957 8.91992,-0.5 15.93359,-2.40625 18.90429,-4.70118 0.0742,-0.0527 0.25196,-0.18164 0.32032,-0.23242 0.80078,-0.62304 1.72656,-1.59179 2.20703,-2.62109 0.43554,-0.93555 0.60742,-1.73438 0.61523,-2.62695 0.006,-1.03125 -0.19336,-1.78516 -0.6582,-2.5586 -0.23242,0.32422 -0.47266,0.625 -0.70703,0.88086 -0.0625,0.0723 -0.22266,0.23242 -0.28906,0.30469 z"
           class="st1"
           inkscape:connector-curvature="0"
           style="fill:#ffffff" /><path
           id="path73"
           d="m 363.91016,446.56934 c -2.8125,-0.0645 -6.85547,-1.3379 -11.57813,-3.69336 -0.2207,0.36719 -0.4375,0.71875 -0.66797,1.0625 3.63477,1.89648 6.9082,3.18945 9.58399,3.8164 -0.12891,0.14453 -0.26563,0.28711 -0.42579,0.43555 -0.5625,0.51562 -1.1621,0.86914 -2,1.14648 -0.92382,0.30078 -2.06835,0.28711 -2.92382,0.14258 -0.0781,-0.01 -0.25977,-0.0469 -0.33399,-0.0625 -1.58398,-0.25781 -3.68554,-1.19922 -6.08398,-2.73828 -0.28125,0.28516 -0.56445,0.55273 -0.85156,0.80664 2.5,1.66016 4.73437,2.75781 6.49609,3.20313 -0.45703,0.35937 -0.91797,0.58203 -1.57227,0.76172 -0.77539,0.20507 -1.71093,0.14257 -2.41406,-0.008 -0.0625,-0.0117 -0.20703,-0.0527 -0.26953,-0.0645 -1.21679,-0.26758 -2.78711,-1.05273 -4.56054,-2.28711 -0.39844,0.20313 -0.80469,0.37305 -1.20704,0.51953 -0.76171,0.22657 -1.83398,0.43946 -2.62304,0.43946 -2.35742,0 -4.59571,-1.07227 -6.58985,-3 -0.0801,-0.0742 -0.66406,0.52539 -0.58398,0.60156 1.97852,2.16406 4.56445,3.38476 7.125,3.38476 0.83008,0 2.8457,-0.29101 3.59375,-0.75585 2.10937,1.46289 3.82812,2.1582 5.23047,2.39062 0.0684,0.0117 0.23242,0.0449 0.30078,0.0547 0.77734,0.12305 1.8125,0.13867 2.65234,-0.13477 0.75586,-0.24609 1.30078,-0.56836 1.81055,-1.03711 0.20703,-0.1914 0.41602,-0.39648 0.5625,-0.59179 0.89063,0.0996 1.96094,0.0742 2.84766,-0.21094 0.92382,-0.30078 1.58398,-0.69727 2.20117,-1.26367 0.51367,-0.47071 1,-0.90625 1.24023,-1.42383 1.38477,0.0566 2.47461,-0.17383 2.47461,-0.17383 0.52148,-0.084 1.11719,-0.26172 1.61523,-0.70508 0.35547,-0.32226 0.59571,-0.61523 0.75,-1.0039 -1.0996,0.32226 -2.29687,0.43359 -3.27929,0.41797 -0.11133,-0.008 -0.40039,-0.0215 -0.51953,-0.0293 z"
           class="st1"
           inkscape:connector-curvature="0"
           style="fill:#ffffff" /><path
           id="path75"
           d="m 368.41016,415.06152 c -2.25196,1.37891 -4.54688,2.56055 -6.82032,3.52539 -0.25586,0.44336 -0.57812,0.88868 -0.95312,1.30469 -1.01172,1.12305 -2.22656,1.85156 -3.35156,2.10352 -0.0137,0.3164 -0.0332,0.63672 -0.0469,0.95117 1.30469,-0.29492 2.63086,-0.63086 3.95508,-0.98828 8.61719,-2.34375 15.08203,-5.66602 17.51172,-8.5332 0.0586,-0.0645 0.20703,-0.22657 0.26172,-0.29688 0.6582,-0.77344 1.35742,-1.91015 1.61523,-3.01758 0.4336,-1.88086 0.0937,-3.38232 -0.90234,-4.53369 -2.43555,3.31299 -6.39649,6.49268 -11.26953,9.48486 z"
           class="st1"
           inkscape:connector-curvature="0"
           style="fill:#ffffff" /><path
           id="path77"
           d="m 378.68945,423.74121 c -0.0742,0.0605 -0.29101,0.2168 -0.36328,0.27344 -2.84961,2.20117 -9.20312,3.97461 -17.41992,4.67969 l -0.008,0.004 c -0.54883,0.53321 -1.2461,1.15821 -2.04297,1.53125 -0.86133,0.40039 -1.74219,0.64063 -2.5586,0.70313 -0.0586,0.31836 -0.125,0.5039 -0.18945,0.81836 0.0547,0.006 0.0977,0.008 0.15625,0.0176 8.87305,1.05274 16.11133,0.39844 19.4336,-1.3496 0.082,-0.041 0.27929,-0.13282 0.35547,-0.16993 0.90234,-0.48242 1.97656,-1.26953 2.6289,-2.20117 0.58985,-0.8457 0.90039,-1.60156 1.06445,-2.47656 0.17774,-1.01758 0.12696,-1.71289 -0.19531,-2.55859 -0.28516,0.27929 -0.58398,0.51562 -0.86133,0.72851 z"
           class="st1"
           inkscape:connector-curvature="0"
           style="fill:#ffffff" /><path
           id="path79"
           d="m 360.67773,406.90185 c 0.004,1.0542 -0.33007,2.27491 -0.99414,3.42334 -0.72265,1.2461 -1.69726,2.19141 -2.69726,2.6875 0.0332,0.33399 0.0664,0.66407 0.0957,1.00391 3.5332,-1.93359 7.18359,-4.62305 10.5293,-7.90967 4,-3.93359 6.91406,-8.0957 8.50781,-11.7998 0.43945,-1.01465 0.65625,-2.24512 0.56836,-3.56543 -0.18555,-2.68262 -1.58789,-4.91016 -3.375,-5.65039 0.0351,0.50976 0.0117,1.04589 -0.0605,1.59375 -0.39258,3.73437 -3.85547,10.14746 -9.65625,16.9414 -0.95703,1.11914 -1.92773,2.22071 -2.91797,3.27539 z"
           class="st1"
           inkscape:connector-curvature="0"
           style="fill:#ffffff" /><path
           id="path81"
           d="m 362.10352,402.69287 c 5.72265,-6.86523 9.10546,-13.31836 9.45312,-17.05859 0.28516,-2.34571 -0.31055,-4.52051 -1.6289,-5.28711 -0.10547,3.33886 -4.63672,11.47363 -11.82032,20.57715 0.67383,1.26464 0.36524,3.39257 -0.72656,5.25586 -0.36523,0.6289 -0.58203,0.84667 -1.23047,1.49462 0.084,0.40821 0.16016,0.8418 0.23438,1.25782 1.93945,-1.88819 3.86718,-4.01416 5.71875,-6.23975 z"
           class="st1"
           inkscape:connector-curvature="0"
           style="fill:#ffffff" /></g><path
         id="path83"
         d="m 316.82227,406.59131 c -0.17578,-0.0693 -0.35157,-0.13086 -0.5293,-0.17969 0.0762,0.79492 0.0801,1.65576 0.0762,2.54834 -0.0176,2.20117 -0.30469,4.29297 -0.75586,6.01367 -0.11523,0.46094 0.0879,0.9043 0.48242,1.06446 0.125,0.0508 0.26563,0.0664 0.39649,0.0488 l 0.008,-0.0234 c 0.70312,-1.60743 1.61133,-3.375 2.70508,-5.17774 0.20117,-0.33594 0.40039,-0.66406 0.60156,-0.98633 -0.36719,-1.41406 -1.43555,-2.6792 -2.98437,-3.3081 z"
         inkscape:connector-curvature="0" /><path
         id="path85"
         d="m 383.37695,416.72754 c -0.0957,-1.39063 -0.53711,-2.68945 -1.20898,-3.7461 0.83203,-1.2246 1.26953,-2.77539 1.21094,-4.52539 -0.0606,-1.8999 -0.74024,-3.64404 -1.80469,-4.94287 0.68359,-1.21094 1.0293,-2.63769 0.97461,-4.25195 -0.0977,-2.84766 -1.45508,-5.32422 -3.44922,-6.62109 0.0684,-0.54395 0.084,-1.07227 0.0723,-1.64649 -0.1289,-4.2793 -1.97656,-6.97558 -4.94335,-8.125 -0.63086,-3.07226 -2.69922,-5.9082 -4.54493,-7.29394 -2.24414,9.5166 -9.30859,18.66504 -11.85547,22.28027 -4.09765,5.81348 -5.05468,11.34131 -7.33593,18.01123 -2.69336,7.86914 -4.58203,16.23047 -11.79492,21.18359 0,-0.7832 0.043,-1.58984 0.13671,-2.42578 1.1875,-10.7207 9.85157,-28.17236 6.71485,-38.34912 -0.18945,-0.61523 -0.4082,-1.2207 -0.67188,-1.80664 -3.08789,-6.97656 -10.11132,-8.0625 -17.30468,-4.81738 -4.48047,2.01855 -9.13672,3.72656 -11.2793,8.61426 -0.86133,1.96777 -1.16602,3.98046 -0.96875,5.70214 0.043,0.38477 0.25195,0.69532 0.58008,0.80567 0.44726,0.15332 0.95507,-0.11035 1.2207,-0.60742 0.19922,-0.3418 0.33398,-0.81934 0.36914,-1.34571 0,-0.0215 0.004,-0.042 0.008,-0.0635 0.008,-0.11622 0.0312,-0.24512 0.0781,-0.36719 0.22656,-0.55274 0.82226,-0.83301 1.33789,-0.62696 0.51367,0.21192 0.74023,0.83106 0.51758,1.38184 -0.0391,0.0977 -0.0859,0.18164 -0.14844,0.26465 -0.13086,0.17871 -0.25977,0.38379 -0.38477,0.60156 -0.26953,0.49707 -0.43554,0.98926 -0.49609,1.38965 -0.084,0.57422 0.23437,1.16113 0.78906,1.39746 0.0371,0.0195 0.0957,0.0469 0.13477,0.0635 2.0332,0.82959 4.45312,-0.22852 5.9082,-2.38477 0.5332,-0.80371 1.04102,-1.71973 1.5,-2.70801 0.71875,-1.54492 0.68164,-3.11914 1.85156,-4.48926 1.9668,-2.2871 7.70703,-3.78515 10.20313,-0.75585 4.85351,5.8916 -0.54297,13.51123 -3.90821,18.52099 -4.23828,6.31055 -10.13672,13.53516 -13.10156,20.64063 -7.75,18.5664 5.47656,36.7832 26.80664,36.7832 13.54688,0 22.00196,-5.90039 26.8086,-12.94922 -9.25196,-0.7207 -14.28125,-6.70703 -14.28125,-6.70703 0,0 1.84961,-0.1875 3.04882,-2.19727 0,0 0.86524,-0.0996 1.63672,-0.19922 1.86719,-0.24414 3.57618,-1.19921 4.28907,-3.27929 0.60546,-1.75586 0.64062,-2.85742 0.64062,-2.85742 0,0 1.24609,-0.52344 1.97266,-2.20508 0.41015,-0.95313 0.51953,-1.42578 0.52343,-2.38867 2.14258,-0.72071 3.7793,-2.56055 4.67969,-4.89453 0.47266,-1.23829 0.56641,-1.83204 0.45508,-3.02735 2.41016,-1.21094 4.22461,-4.63477 4.13086,-7.41015 -0.0293,-0.94727 -0.26758,-1.80274 -0.61719,-2.60938 1.07813,-1.2539 1.63867,-3.0039 1.5,-5.01562 z m -3.63086,8.84375 c -0.16406,0.875 -0.4746,1.63086 -1.06445,2.47656 -0.65234,0.93164 -1.72656,1.71875 -2.6289,2.20117 -0.0762,0.0371 -0.27344,0.12891 -0.35547,0.16992 -3.32227,1.74805 -10.56055,2.40235 -19.4336,1.34961 -0.0586,-0.01 -0.10156,-0.0117 -0.15625,-0.0176 0.0645,-0.31446 0.13086,-0.5 0.18946,-0.81836 0.8164,-0.0625 1.69726,-0.30274 2.55859,-0.70313 0.79687,-0.37305 1.49414,-0.99805 2.04297,-1.53125 l 0.008,-0.004 c 8.2168,-0.70508 14.57031,-2.47852 17.41992,-4.67969 0.0723,-0.0566 0.28906,-0.21289 0.36328,-0.27344 0.27735,-0.21289 0.57618,-0.44922 0.86133,-0.72852 0.32227,0.84571 0.37305,1.54102 0.19531,2.5586 z m -4.35742,8.51953 c -0.28125,0.75586 -0.67578,1.375 -1.33203,2.03711 -0.72461,0.7207 -1.80078,1.25586 -2.67187,1.53515 -0.0742,0.0234 -0.26563,0.0781 -0.33985,0.0977 -3.02539,0.9707 -8.9375,0.54492 -16.01367,-1.43164 0.0937,-0.28125 0.18164,-0.56055 0.26367,-0.84766 0.27344,0.008 0.5293,-0.008 0.81445,-0.0312 1.40821,-0.125 2.60743,-0.82226 3.29883,-1.58007 6.91407,0.50976 11.65235,0.30273 14.42578,-0.70704 0,0 1.47461,-0.47656 1.77149,-0.68359 0,0 0.10547,0.74219 -0.2168,1.61133 z m -10.04492,13.79883 c 0,0 -1.08984,0.23047 -2.47461,0.17383 -0.24023,0.51757 -0.72656,0.95312 -1.24023,1.42382 -0.61719,0.56641 -1.27735,0.9629 -2.20117,1.26368 -0.88672,0.28515 -1.95704,0.31054 -2.84766,0.21093 -0.14648,0.19532 -0.35547,0.4004 -0.5625,0.5918 -0.50977,0.46875 -1.05469,0.79102 -1.81055,1.03711 -0.83984,0.27344 -1.875,0.25781 -2.65234,0.13477 -0.0684,-0.01 -0.23242,-0.043 -0.30078,-0.0547 -1.40235,-0.23242 -3.1211,-0.92774 -5.23047,-2.39063 -0.74805,0.46485 -2.76367,0.75586 -3.59375,0.75586 -2.56055,0 -5.14649,-1.2207 -7.125,-3.38476 -0.0801,-0.0762 0.5039,-0.67578 0.58398,-0.60157 1.99414,1.92774 4.23242,3 6.58985,3 0.78906,0 1.86132,-0.21289 2.62304,-0.43945 0.40235,-0.14648 0.8086,-0.31641 1.20703,-0.51953 1.77344,1.23437 3.34375,2.01953 4.56055,2.28711 0.0625,0.0117 0.20703,0.0527 0.26953,0.0645 0.70313,0.15039 1.63867,0.21289 2.41406,0.008 0.6543,-0.17968 1.11524,-0.40234 1.57227,-0.76172 -1.76172,-0.44531 -3.99609,-1.54296 -6.49609,-3.20312 0.2871,-0.25391 0.57031,-0.52148 0.85156,-0.80664 2.39844,1.53906 4.5,2.48047 6.08398,2.73828 0.0742,0.0156 0.25586,0.0527 0.33399,0.0625 0.85546,0.14453 2,0.1582 2.92382,-0.14258 0.83789,-0.27734 1.4375,-0.63086 2,-1.14648 0.16016,-0.14844 0.29688,-0.29102 0.42578,-0.43555 -2.67578,-0.62695 -5.94921,-1.91992 -9.58398,-3.81641 0.23047,-0.34375 0.44727,-0.69531 0.66797,-1.0625 4.72266,2.35547 8.76562,3.62891 11.57812,3.69336 0.11915,0.008 0.40821,0.0215 0.51954,0.0293 0.98242,0.0156 2.17968,-0.0957 3.27929,-0.41797 -0.15429,0.38867 -0.39453,0.68164 -0.75,1.00391 -0.49804,0.44336 -1.09375,0.62109 -1.61523,0.70508 z m 0.125,-3.63867 c -0.0781,0.004 -0.26367,0.008 -0.33984,0.0117 -2.5293,0.1621 -6.7129,-1.04493 -11.5918,-3.48438 0.1543,-0.31445 0.30273,-0.625 0.44922,-0.95312 1.75195,0.41797 3.40039,-0.082 4.19922,-0.98047 4.89453,1.32617 8.4414,1.71093 11.27539,1.26757 0.0781,-0.0176 0.26953,-0.0547 0.34765,-0.0742 0.29297,-0.0742 0.60743,-0.16993 0.92383,-0.29102 -0.041,0.77734 -0.25781,1.40039 -0.75781,2.13477 -0.43164,0.625 -0.93555,1.10937 -1.69336,1.56445 -0.83203,0.50195 -1.94727,0.74219 -2.8125,0.80469 z m 6.08789,-58.6167 c -0.34765,3.74023 -3.73047,10.19336 -9.45312,17.05859 -1.85157,2.22559 -3.7793,4.35156 -5.71875,6.23975 -0.0742,-0.41602 -0.1504,-0.84961 -0.23438,-1.25782 0.64844,-0.64794 0.86523,-0.86572 1.23047,-1.49462 1.0918,-1.86328 1.40039,-3.99122 0.72656,-5.25586 7.1836,-9.10352 11.71485,-17.23828 11.82031,-20.57715 1.31836,0.7666 1.91407,2.9414 1.62891,5.28711 z m 1.75586,-0.54297 c 1.78711,0.74023 3.18945,2.96777 3.375,5.65039 0.0879,1.32031 -0.12891,2.55078 -0.56836,3.56543 -1.59375,3.7041 -4.50781,7.86621 -8.50781,11.79981 -3.3457,3.28662 -6.9961,5.97607 -10.5293,7.90966 -0.0293,-0.33984 -0.0625,-0.66992 -0.0957,-1.0039 1,-0.4961 1.97461,-1.44141 2.69727,-2.6875 0.66406,-1.14844 0.99804,-2.36914 0.99414,-3.42334 0.99023,-1.05469 1.96093,-2.15625 2.91797,-3.27539 5.80078,-6.79395 9.26367,-13.20703 9.65625,-16.94141 0.0723,-0.54785 0.0957,-1.08399 0.0605,-1.59375 z m 7.26953,25.01904 c -0.25781,1.10742 -0.95703,2.24414 -1.61523,3.01758 -0.0547,0.0703 -0.20313,0.23242 -0.26172,0.29687 -2.42969,2.86719 -8.89453,6.18946 -17.51172,8.53321 -1.32422,0.35742 -2.65039,0.69336 -3.95508,0.98828 0.0137,-0.31445 0.0332,-0.63477 0.0469,-0.95117 1.125,-0.25196 2.33984,-0.98047 3.35156,-2.10352 0.375,-0.41602 0.69726,-0.86133 0.95312,-1.30469 2.27344,-0.96484 4.56836,-2.14648 6.82031,-3.52539 4.87305,-2.99219 8.83399,-6.17187 11.26954,-9.48486 0.99609,1.15137 1.33593,2.65283 0.90234,4.53369 z m -1.57617,-7.23779 c -0.0391,0.082 -0.14453,0.27148 -0.1875,0.35156 -1.72266,3.33691 -7.27539,8.02686 -15.14649,12.24561 -2.12109,1.14062 -4.25195,2.1914 -6.35156,3.10547 -0.004,-0.32618 -0.008,-0.64844 -0.0195,-0.97071 1.00781,-0.49609 2.00781,-1.43554 2.73633,-2.69726 0.16992,-0.30274 0.30664,-0.59766 0.43359,-0.90625 2.94532,-1.82813 5.91211,-4.15039 8.68165,-6.87354 4.08203,-4.00684 7.0625,-8.28809 8.68945,-12.06934 1.23437,0.9004 2.05469,2.58204 2.05469,4.51172 -1e-5,1.13672 -0.42188,2.40235 -0.89063,3.30274 z m -0.80078,19.26318 c -0.0684,0.0508 -0.2461,0.17969 -0.32031,0.23242 -2.97071,2.29493 -9.98438,4.20118 -18.9043,4.70118 -0.70703,0.0391 -1.4082,0.0723 -2.11133,0.0957 0.0352,-0.29883 0.0723,-0.58203 0.10742,-0.88477 0.37891,-0.0684 0.76953,-0.16992 1.15821,-0.31445 1.3496,-0.49023 2.4082,-1.33398 2.97851,-2.24609 8.91797,-2.14454 15.64844,-5.33399 18.25977,-8.20508 0.0664,-0.0723 0.22656,-0.23242 0.28906,-0.30469 0.23438,-0.25586 0.47461,-0.55664 0.70703,-0.88086 0.46485,0.77344 0.66406,1.52734 0.6582,2.55859 -0.008,0.89258 -0.17968,1.69141 -0.61523,2.62696 -0.48047,1.02929 -1.40625,1.99804 -2.20703,2.62109 z"
         inkscape:connector-curvature="0" /></g><g
       id="g87"><path
         id="path89"
         d="m 512.3794,291.2251 v 5.85205 c 0,0.38379 -0.28809,0.57568 -0.76758,0.52734 l -2.39844,-0.14355 c -0.14404,0 -0.33545,-0.0957 -0.38281,-0.38379 l -0.0977,-1.3916 v -0.0478 h -7.29004 v 29.16357 l 1.48682,0.0957 c 0.33642,0 0.479,0.33594 0.43213,0.76709 l -0.14356,2.39844 c 0,0.24023 -0.14502,0.3833 -0.38427,0.3833 h -8.20215 c -0.3833,0 -0.57471,-0.28711 -0.52783,-0.76758 l 0.14453,-2.39746 c 0,-0.14404 0.0957,-0.33642 0.3833,-0.38379 l 1.39062,-0.0957 V 295.6377 h -6.76367 l -0.0947,1.48681 c 0,0.33643 -0.33545,0.47998 -0.76757,0.43213 l -2.39844,-0.14404 c -0.24024,0 -0.3833,-0.14307 -0.3833,-0.38281 v -5.80469 h 26.76465 z"
         class="st0"
         inkscape:connector-curvature="0"
         style="fill:#244397" /><path
         id="path91"
         d="m 548.11475,324.89697 c 0.33642,0 0.47949,0.33594 0.43115,0.76709 l -0.14405,2.39844 c 0,0.24023 -0.14306,0.3833 -0.38378,0.3833 h -8.20215 c -0.3833,0 -0.57471,-0.28711 -0.52686,-0.76758 l 0.14356,-2.39746 c 0,-0.14404 0.0957,-0.33642 0.3833,-0.38379 l 1.3916,-0.0957 v -12.90234 h -16.69238 v 12.90234 l 1.48681,0.0957 c 0.33643,0 0.4795,0.33594 0.43165,0.76709 l -0.14356,2.39844 c 0,0.24024 -0.14502,0.3833 -0.38428,0.3833 h -8.20166 c -0.38476,0 -0.57519,-0.28711 -0.52783,-0.76758 l 0.14307,-2.39746 c 0,-0.14404 0.0972,-0.33642 0.38476,-0.38379 l 1.39161,-0.0957 v -29.93066 l -1.48731,-0.0957 c -0.33594,0 -0.47949,-0.33544 -0.43213,-0.76757 l 0.14307,-2.39844 c 0,-0.23926 0.14502,-0.38379 0.38476,-0.38379 h 8.20166 c 0.38428,0 0.57569,0.28857 0.52784,0.76709 l -0.14356,2.39893 c 0,0.14355 -0.0957,0.33496 -0.38428,0.38378 l -1.39062,0.0957 v 12.5664 h 16.69238 v -12.5664 l -1.48681,-0.0957 c -0.33594,0 -0.4795,-0.33544 -0.43165,-0.76757 l 0.14356,-2.39844 c 0,-0.23926 0.14355,-0.38379 0.3833,-0.38379 h 8.20215 c 0.38379,0 0.57617,0.28857 0.52783,0.76709 l -0.14404,2.39893 c 0,0.14355 -0.0962,0.33496 -0.38379,0.38378 l -1.39014,0.0957 v 29.93066 l 1.48682,0.0957 z"
         class="st0"
         inkscape:connector-curvature="0"
         style="fill:#244397" /><path
         id="path93"
         d="m 578.6709,322.21143 c 0.24023,0 0.3833,0.14355 0.3833,0.38378 v 5.85059 h -23.26319 c -0.38378,0 -0.57519,-0.28711 -0.52685,-0.76758 l 0.14307,-2.39746 c 0,-0.14404 0.0967,-0.33642 0.38378,-0.38379 l 1.39161,-0.0957 v -29.93066 l -1.48731,-0.0957 c -0.33545,0 -0.47949,-0.33545 -0.43115,-0.76758 l 0.14307,-2.39843 c 0,-0.23926 0.14453,-0.38379 0.38378,-0.38379 h 22.44825 v 5.85205 c 0,0.38379 -0.28907,0.57568 -0.76758,0.52734 l -2.39746,-0.14355 c -0.14453,0 -0.33594,-0.0957 -0.38477,-0.38379 l -0.0957,-1.3916 h -11.94336 v 11.36816 h 13.52588 v 4.41358 h -13.52588 v 12.51806 h 12.75879 l 0.0962,-1.4873 c 0,-0.33545 0.33691,-0.4795 0.76758,-0.43213 l 2.39795,0.14551 z"
         class="st0"
         inkscape:connector-curvature="0"
         style="fill:#244397" /><path
         id="path95"
         d="m 633.96875,291.2251 c 0.38477,0 0.57617,0.28857 0.52734,0.76709 l -0.14257,2.39892 c 0,0.14356 -0.0957,0.33497 -0.38477,0.38379 l -1.38965,0.0957 h -0.14551 v 19.85791 c 0,9.68896 -3.78808,14.29345 -13.47753,14.29345 -9.25782,0 -13.28614,-3.11816 -13.28614,-14.29345 V 294.8706 l -1.48828,-0.0957 c -0.33594,0 -0.48047,-0.33545 -0.43164,-0.76758 l 0.14356,-2.39843 c 0,-0.23926 0.14355,-0.38379 0.38476,-0.38379 h 8.2002 c 0.38476,0 0.57714,0.28857 0.52734,0.76709 l -0.14258,2.39892 c 0,0.14356 -0.0967,0.33497 -0.38476,0.38379 l -1.3877,0.0957 v 20.81689 c 0,5.94775 1.77246,9.16162 7.81738,9.16162 6.7168,0 8.24903,-4.125 8.24903,-9.16162 v -20.8169 l -1.48536,-0.0957 c -0.33593,0 -0.48144,-0.33545 -0.43261,-0.76758 l 0.14453,-2.39843 c 0,-0.23926 0.14355,-0.38379 0.38379,-0.38379 h 8.20117 z"
         class="st0"
         inkscape:connector-curvature="0"
         style="fill:#244397" /><path
         id="path97"
         d="m 674.16406,291.2251 c 0.38574,0 0.57813,0.28857 0.52832,0.76709 l -0.14258,2.39892 c 0,0.14356 -0.0977,0.33497 -0.38574,0.38379 l -1.38867,0.0957 h -0.43164 v 33.57519 h -3.59668 c -0.23926,0 -0.38574,-0.0957 -0.5293,-0.28711 l -19.61719,-27.43652 v 24.0791 h 0.43067 l 1.48828,0.0957 c 0.33496,0 0.48047,0.33594 0.43164,0.76709 l -0.14258,2.39844 c 0,0.24024 -0.14551,0.3833 -0.38476,0.3833 h -8.20313 c -0.38281,0 -0.57519,-0.28711 -0.52734,-0.76758 l 0.14453,-2.39746 c 0,-0.14404 0.0957,-0.33642 0.38281,-0.38379 l 1.39062,-0.0957 V 294.8706 l -1.4873,-0.0957 c -0.33398,0 -0.47852,-0.33544 -0.43066,-0.76757 l 0.14453,-2.39844 c 0,-0.23926 0.14257,-0.38379 0.38281,-0.38379 h 5.32226 c 0.29004,0 0.43262,0.14453 0.57911,0.33594 l 19.23242,26.86084 v -23.55127 l -1.48633,-0.0957 c -0.33496,0 -0.47852,-0.33544 -0.43262,-0.76757 l 0.14453,-2.39844 c 0,-0.23926 0.14454,-0.38379 0.38379,-0.38379 h 8.2002 z"
         class="st0"
         inkscape:connector-curvature="0"
         style="fill:#244397" /><path
         id="path99"
         d="m 691.19434,324.89697 c 0.33789,0 0.48046,0.33594 0.43261,0.76709 l -0.14355,2.39844 c 0,0.24023 -0.14551,0.3833 -0.38574,0.3833 h -8.20118 c -0.38183,0 -0.57324,-0.28711 -0.52734,-0.76758 l 0.14551,-2.39746 c 0,-0.14404 0.0947,-0.33642 0.38183,-0.38379 l 1.39161,-0.0957 v -29.93066 l -1.48633,-0.0957 c -0.33496,0 -0.47852,-0.33545 -0.43262,-0.76757 l 0.14551,-2.39844 c 0,-0.23926 0.14355,-0.38379 0.38183,-0.38379 h 8.20118 c 0.38574,0 0.57714,0.28857 0.52929,0.76709 l -0.14355,2.39893 c 0,0.14355 -0.0977,0.33496 -0.38574,0.38378 l -1.38868,0.0957 v 29.93066 l 1.48536,0.0957 z"
         class="st0"
         inkscape:connector-curvature="0"
         style="fill:#244397" /><path
         id="path101"
         d="m 730.19141,291.2251 c 0.38574,0 0.57617,0.28857 0.52929,0.76709 l -0.14355,2.39892 c 0,0.14356 -0.0957,0.33497 -0.38574,0.38379 l -1.39063,0.0957 -11.89648,32.42431 c -0.23731,0.72022 -0.76563,1.15088 -1.53321,1.15088 l -4.03027,-0.14307 c -0.14258,0 -0.23926,-0.0483 -0.33496,-0.28759 l -12.42383,-33.14453 -1.48535,-0.0957 c -0.33594,0 -0.47852,-0.33545 -0.43066,-0.76758 l 0.14355,-2.39843 c 0,-0.23926 0.14356,-0.38379 0.38086,-0.38379 h 8.29883 c 0.38574,0 0.57617,0.28857 0.52734,0.76709 l -0.1416,2.39892 c 0,0.14356 -0.0977,0.33496 -0.38574,0.38379 l -1.39063,0.0957 9.64063,27.05175 h 0.14355 l 9.59571,-27.05175 -1.48731,-0.0957 c -0.33691,0 -0.48047,-0.33545 -0.43262,-0.76758 l 0.14356,-2.39843 c 0,-0.23926 0.14453,-0.38379 0.38281,-0.38379 h 8.10645 z"
         class="st0"
         inkscape:connector-curvature="0"
         style="fill:#244397" /><path
         id="path103"
         d="m 759.16504,322.21143 c 0.24121,0 0.38574,0.14355 0.38574,0.38378 v 5.85059 h -23.26562 c -0.38379,0 -0.5752,-0.28711 -0.52735,-0.76758 l 0.14356,-2.39746 c 0,-0.14404 0.0957,-0.33642 0.38379,-0.38379 l 1.39062,-0.0957 v -29.93066 l -1.4873,-0.0957 c -0.33496,0 -0.47852,-0.33545 -0.43067,-0.76758 l 0.14356,-2.39843 c 0,-0.23926 0.14453,-0.38379 0.38379,-0.38379 h 22.44824 v 5.85205 c 0,0.38379 -0.28809,0.57568 -0.76563,0.52734 l -2.39941,-0.14355 c -0.14648,0 -0.33789,-0.0957 -0.38477,-0.38379 l -0.0957,-1.3916 h -11.94238 v 11.36816 h 13.52734 v 4.41358 h -13.52734 v 12.51806 h 12.75879 l 0.0967,-1.4873 c 0,-0.33545 0.33593,-0.4795 0.76757,-0.43213 l 2.39649,0.14551 z"
         class="st0"
         inkscape:connector-curvature="0"
         style="fill:#244397" /><path
         id="path105"
         d="m 793.0791,324.89697 c 0.33496,0 0.47754,0.33594 0.43164,0.76709 l -0.14355,2.39844 c 0,0.24023 -0.14258,0.3833 -0.38379,0.3833 h -5.46973 l -8.15234,-14.38916 h -5.27539 v 10.74463 l 1.48828,0.0957 c 0.33203,0 0.47754,0.33594 0.42969,0.76709 l -0.14453,2.39844 c 0,0.24024 -0.14258,0.3833 -0.38184,0.3833 h -8.2041 c -0.38477,0 -0.5752,-0.28711 -0.52735,-0.76758 l 0.14258,-2.39746 c 0,-0.14404 0.0986,-0.33642 0.38477,-0.38379 l 1.39062,-0.0957 v -29.93066 l -1.48633,-0.0957 c -0.33691,0 -0.47949,-0.33544 -0.43164,-0.76757 l 0.14258,-2.39844 c 0,-0.23926 0.14649,-0.38379 0.38477,-0.38379 h 10.84082 c 9.35254,0 13.76562,3.5498 13.76562,11.12891 0,4.84375 -2.54101,8.96875 -7.09668,10.69531 l 6.80957,11.75195 1.48633,0.0957 z m -14.82226,-15.1084 c 5.18164,0 8.15625,-2.25537 8.15625,-7.43457 0,-4.9414 -2.83204,-6.90771 -7.72364,-6.90771 h -4.60351 v 14.34228 h 4.1709 z"
         class="st0"
         inkscape:connector-curvature="0"
         style="fill:#244397" /><path
         id="path107"
         d="m 822.86719,318.22998 c 0,6.04297 -4.46094,10.45508 -12.85645,10.45508 -4.50879,0 -8.10547,-0.95801 -10.69629,-2.06201 v -5.80371 c 0,-0.43116 0.3379,-0.67041 0.91309,-0.62305 l 2.87793,0.19189 c 0.19043,0 0.42969,0.0952 0.48047,0.43116 l 0.0947,2.5913 c 2.25488,0.52686 4.50781,0.81397 6.04492,0.81397 4.3623,0 7.76953,-1.48633 7.76953,-5.46729 0,-4.26904 -1.63086,-5.13281 -9.01856,-7.76953 -5.37109,-2.01611 -9.06445,-4.75 -9.06445,-10.07422 0,-5.9956 4.55469,-9.97656 12.66211,-9.97656 2.97168,0 5.80371,0.28809 8.49219,0.95948 v 6.28418 c 0,0.43115 -0.33887,0.67138 -0.91406,0.62304 l -2.87793,-0.19189 c -0.19434,0 -0.43067,-0.0962 -0.48047,-0.43115 l -0.0937,-2.59131 c -1.29785,-0.14307 -2.59082,-0.23926 -3.79102,-0.23926 -4.46191,0 -7.38769,2.0625 -7.38769,5.37207 0,3.4541 2.01562,4.70117 8.58789,7.05029 6.85937,2.3999 9.25781,5.66064 9.25781,10.45752 z"
         class="st0"
         inkscape:connector-curvature="0"
         style="fill:#244397" /><path
         id="path109"
         d="m 838.41016,324.89697 c 0.33398,0 0.47656,0.33594 0.42871,0.76709 l -0.1416,2.39844 c 0,0.24023 -0.14454,0.3833 -0.38379,0.3833 h -8.20215 c -0.38574,0 -0.57715,-0.28711 -0.53027,-0.76758 l 0.14453,-2.39746 c 0,-0.14404 0.0996,-0.33642 0.38574,-0.38379 l 1.39062,-0.0957 v -29.93066 l -1.4873,-0.0957 c -0.33692,0 -0.48047,-0.33545 -0.4336,-0.76757 l 0.14454,-2.39844 c 0,-0.23926 0.14453,-0.38379 0.38574,-0.38379 h 8.20215 c 0.38378,0 0.57324,0.28857 0.52539,0.76709 l -0.14161,2.39893 c 0,0.14355 -0.0977,0.33496 -0.38378,0.38378 l -1.39161,0.0957 v 29.93066 l 1.48829,0.0957 z"
         class="st0"
         inkscape:connector-curvature="0"
         style="fill:#244397" /><path
         id="path111"
         d="m 871.36133,291.2251 v 5.85205 c 0,0.38379 -0.28711,0.57568 -0.7666,0.52734 l -2.39942,-0.14355 c -0.14453,0 -0.33398,-0.0957 -0.38476,-0.38379 l -0.0957,-1.3916 v -0.0478 h -7.28906 v 29.16357 l 1.48828,0.0957 c 0.33399,0 0.47852,0.33594 0.42969,0.76709 l -0.14355,2.39844 c 0,0.24023 -0.14258,0.3833 -0.38477,0.3833 h -8.2002 c -0.38574,0 -0.57617,-0.28711 -0.52832,-0.76758 l 0.14258,-2.39746 c 0,-0.14404 0.0967,-0.33642 0.38574,-0.38379 l 1.38965,-0.0957 V 295.6377 h -6.76172 l -0.0957,1.48681 c 0,0.33643 -0.33691,0.47998 -0.76855,0.43213 l -2.39844,-0.14404 c -0.23926,0 -0.38477,-0.14307 -0.38477,-0.38281 v -5.80469 h 26.76563 z"
         class="st0"
         inkscape:connector-curvature="0"
         style="fill:#244397" /><path
         id="path113"
         d="m 903.69141,291.2251 c 0.38183,0 0.57519,0.28857 0.52832,0.76709 l -0.14649,2.39892 c 0,0.14356 -0.0957,0.33497 -0.38183,0.38379 l -1.39161,0.0957 -10.45605,20.48144 v 9.44922 l 1.48633,0.0957 c 0.33691,0 0.48047,0.33594 0.43261,0.76709 l -0.14257,2.39844 c 0,0.24024 -0.14356,0.3833 -0.38477,0.3833 h -8.20215 c -0.38281,0 -0.57617,-0.28711 -0.52832,-0.76758 l 0.14551,-2.39746 c 0,-0.14404 0.0928,-0.33642 0.38281,-0.38379 l 1.38867,-0.0957 v -9.54639 l -10.31054,-20.38427 -1.43946,-0.0957 c -0.33496,0 -0.48046,-0.33544 -0.43261,-0.76757 l 0.1455,-2.39844 c 0,-0.23926 0.14356,-0.38379 0.38282,-0.38379 h 8.20312 c 0.38184,0 0.5752,0.28857 0.52832,0.76709 l -0.14648,2.39893 c 0,0.14355 -0.0947,0.33496 -0.38184,0.38378 l -1.34277,0.0957 7.48242,15.44433 h 0.14453 l 7.72266,-15.44433 -1.48926,-0.0957 c -0.33496,0 -0.47852,-0.33544 -0.42969,-0.76757 l 0.14258,-2.39844 c 0,-0.23926 0.14453,-0.38379 0.38379,-0.38379 h 8.10645 z"
         class="st0"
         inkscape:connector-curvature="0"
         style="fill:#244397" /><path
         id="path115"
         d="m 952.24316,309.8833 c 0,12.71191 -5.61132,18.85059 -15.01172,18.85059 -9.30468,0 -15.01367,-6.33106 -15.01367,-18.85059 0,-9.01806 3.40528,-18.89746 15.1084,-18.89746 10.02539,0 14.91699,7.6748 14.91699,18.89746 z m -24.3164,-0.0947 c 0,6.28321 1.43847,14.43604 9.30469,14.43604 6.52246,0 9.35253,-5.56348 9.35253,-14.43604 0,-6.42822 -1.583,-14.34228 -9.30468,-14.34228 -7.86621,0 -9.35254,8.10644 -9.35254,14.34228 z"
         class="st0"
         inkscape:connector-curvature="0"
         style="fill:#244397" /><path
         id="path117"
         d="m 980.97656,291.2251 v 5.85205 c 0,0.38379 -0.28808,0.57568 -0.7666,0.52734 l -2.39844,-0.14355 c -0.14453,0 -0.33691,-0.0957 -0.38379,-0.38379 l -0.0967,-1.3916 h -11.99121 v 11.36816 h 12.99805 v 4.41358 h -12.99805 v 13.33398 l 1.48828,0.0957 c 0.33496,0 0.48047,0.33594 0.43164,0.76709 l -0.14355,2.39844 c 0,0.24023 -0.14551,0.3833 -0.38477,0.3833 h -8.2041 c -0.38086,0 -0.57227,-0.28711 -0.52539,-0.76758 l 0.14453,-2.39746 c 0,-0.14404 0.0947,-0.33642 0.38086,-0.38379 l 1.39258,-0.0957 v -29.93066 l -1.48535,-0.0957 c -0.33692,0 -0.4795,-0.33545 -0.43262,-0.76757 l 0.14453,-2.39844 c 0,-0.23926 0.14258,-0.38379 0.38086,-0.38379 h 22.44922 z"
         class="st0"
         inkscape:connector-curvature="0"
         style="fill:#244397" /><g
         id="g119"><path
           id="path121"
           d="m 587.32666,345.76318 c 0.84766,0 1.27197,0.63672 1.1665,1.69727 l -0.31884,5.30127 c 0,0.31836 -0.21241,0.74268 -0.84766,0.84863 l -2.96973,0.21192 -17.91943,70.51562 c -0.6377,2.3335 -2.5459,3.71191 -4.87891,3.71191 l -8.27002,-0.31787 c -1.16748,0 -1.59228,-0.74267 -1.91064,-1.90918 l -14.4209,-62.03271 h -0.10498 l -14.20947,59.27539 c -0.53125,2.12158 -1.90918,5.09033 -5.62061,4.98437 l -7.95263,-0.31787 c -0.95411,0 -1.58936,-0.53076 -1.90821,-1.90918 l -17.39062,-72.00048 -3.18115,-0.21192 c -0.7417,0 -1.06006,-0.7417 -0.95557,-1.69678 l 0.31934,-5.30175 c 0,-0.53028 0.31933,-0.84864 0.84765,-0.84864 h 17.49658 c 0.84815,0 1.27247,0.63672 1.167,1.69727 l -0.31885,5.30127 c 0,0.31836 -0.21143,0.74268 -0.84815,0.84863 l -2.96924,0.21192 13.57325,61.82031 h 0.10644 l 15.1626,-65.00098 c 0.84815,-3.71142 2.65186,-4.98437 5.19727,-4.87842 l 6.04443,0.31836 c 1.05908,0.10596 1.48291,0.63672 1.80176,2.01465 l 15.375,67.54639 h 0.10644 l 14.20948,-61.82031 -3.18116,-0.21192 c -0.74218,0 -1.06103,-0.7417 -0.95459,-1.69678 l 0.31787,-5.30175 c 0,-0.53028 0.31934,-0.84864 0.84815,-0.84864 h 17.3916 z"
           class="st0"
           inkscape:connector-curvature="0"
           style="fill:#244397" /><path
           id="path123"
           d="m 646.06543,414.26416 c 0.5293,0 0.84863,0.31836 0.84863,0.84863 v 12.93701 h -51.42724 c -0.84815,0 -1.27295,-0.63671 -1.16748,-1.69677 l 0.31933,-5.30176 c 0,-0.31836 0.21094,-0.74316 0.84815,-0.84863 l 3.07373,-0.21241 v -66.16796 l -3.28711,-0.21192 c -0.7417,0 -1.05957,-0.7417 -0.9541,-1.69677 l 0.31933,-5.30176 c 0,-0.53028 0.3169,-0.84864 0.84815,-0.84864 h 49.62549 v 12.9375 c 0,0.84717 -0.6377,1.27149 -1.69629,1.16602 l -5.30274,-0.31885 c -0.31836,0 -0.74218,-0.21142 -0.84961,-0.84717 l -0.20996,-3.07519 h -26.40332 v 25.13086 h 29.90235 v 9.75537 h -29.90235 v 27.67676 h 28.20606 l 0.21191,-3.28809 c 0,-0.7417 0.74219,-1.06006 1.69629,-0.9541 l 5.30078,0.31787 z"
           class="st0"
           inkscape:connector-curvature="0"
           style="fill:#244397" /><path
           id="path125"
           d="m 706.92969,405.46387 c 0,13.36035 -9.86133,23.1167 -28.41895,23.1167 -9.96777,0 -17.91992,-2.12207 -23.6455,-4.56153 v -12.8291 c 0,-0.95459 0.74023,-1.48535 2.01464,-1.37939 l 6.36133,0.4248 c 0.42481,0 0.95508,0.2124 1.06152,0.95459 l 0.21094,5.72559 c 4.9834,1.1665 9.96875,1.80175 13.36231,1.80175 9.65136,0 17.17578,-3.28613 17.17578,-12.0874 0,-9.43799 -3.60352,-11.34619 -19.93457,-17.17822 -11.87598,-4.4541 -20.04102,-10.49805 -20.04102,-22.26856 0,-13.2539 10.07422,-22.05566 27.99512,-22.05566 6.57519,0 12.8291,0.63574 18.76758,2.12012 v 13.8916 c 0,0.9541 -0.74121,1.48486 -2.0127,1.37793 l -6.3623,-0.42383 c -0.42481,0 -0.95606,-0.21142 -1.06153,-0.9541 l -0.21093,-5.72559 c -2.86426,-0.31884 -5.72754,-0.53027 -8.37696,-0.53027 -9.86132,0 -16.33203,4.55859 -16.33203,11.87549 0,7.63476 4.45508,10.39209 18.98145,15.5874 15.16406,5.30225 20.46582,12.51367 20.46582,23.11768 z"
           class="st0"
           inkscape:connector-curvature="0"
           style="fill:#244397" /><path
           id="path127"
           d="m 770.33789,345.76318 v 12.9375 c 0,0.84717 -0.63672,1.27149 -1.69727,1.16602 l -5.30175,-0.31885 c -0.31641,0 -0.74317,-0.21142 -0.84766,-0.84717 l -0.21191,-3.07519 v -0.10645 h -16.11914 v 64.47119 l 3.28808,0.21241 c 0.74219,0 1.05957,0.74218 0.95313,1.69726 l -0.31836,5.30127 c 0,0.53076 -0.31641,0.84864 -0.84863,0.84864 h -18.13086 c -0.84864,0 -1.27246,-0.63672 -1.167,-1.69678 l 0.31836,-5.30176 c 0,-0.31836 0.21094,-0.74316 0.84864,-0.84863 l 3.07421,-0.2124 v -64.4712 h -14.95117 l -0.21094,3.28663 c 0,0.74218 -0.74414,1.06103 -1.69726,0.95556 l -5.30078,-0.31933 c -0.53321,0 -0.84864,-0.31739 -0.84864,-0.84766 v -12.83105 h 59.16895 z"
           class="st0"
           inkscape:connector-curvature="0"
           style="fill:#244397" /><path
           id="path129"
           d="m 829.82227,414.26416 c 0.53027,0 0.84765,0.31836 0.84765,0.84863 v 12.93701 h -51.42871 c -0.84961,0 -1.27344,-0.63671 -1.16602,-1.69677 l 0.31641,-5.30176 c 0,-0.31836 0.21484,-0.74316 0.84961,-0.84863 l 3.07617,-0.21241 v -66.16796 l -3.28808,-0.21192 c -0.74219,0 -1.06153,-0.7417 -0.95411,-1.69677 l 0.31641,-5.30176 c 0,-0.53028 0.31836,-0.84864 0.84961,-0.84864 h 49.62598 v 12.9375 c 0,0.84717 -0.63477,1.27149 -1.69727,1.16602 l -5.30078,-0.31885 c -0.31934,0 -0.74219,-0.21142 -0.84863,-0.84717 l -0.21289,-3.07519 H 794.4043 v 25.13086 h 29.90429 v 9.75537 H 794.4043 v 27.67676 h 28.20703 l 0.21191,-3.28809 c 0,-0.7417 0.74316,-1.06006 1.69629,-0.9541 l 5.30274,0.31787 z"
           class="st0"
           inkscape:connector-curvature="0"
           style="fill:#244397" /><path
           id="path131"
           d="m 898.85059,420.20264 c 0.74316,0 1.05859,0.74218 0.95312,1.69726 l -0.31738,5.30127 c 0,0.53076 -0.31836,0.84864 -0.84961,0.84864 H 886.54981 L 868.52149,396.23779 H 856.8584 v 23.75244 l 3.28711,0.21241 c 0.74121,0 1.05957,0.74218 0.95508,1.69726 l -0.31934,5.30127 c 0,0.53076 -0.31836,0.84864 -0.84668,0.84864 h -18.13379 c -0.84863,0 -1.27344,-0.63672 -1.16504,-1.69678 l 0.31641,-5.30176 c 0,-0.31836 0.21289,-0.74316 0.84863,-0.84863 l 3.07617,-0.2124 v -66.16797 l -3.28711,-0.21192 c -0.74414,0 -1.0625,-0.7417 -0.9541,-1.69677 l 0.31641,-5.30176 c 0,-0.53028 0.31933,-0.84863 0.84863,-0.84863 h 23.96484 c 20.67872,0 30.4336,7.84716 30.4336,24.60058 0,10.71045 -5.62305,19.82959 -15.69336,23.64746 l 15.05664,25.97901 3.28809,0.2124 z m -32.76661,-33.40235 c 11.45215,0 18.02637,-4.98388 18.02637,-16.43652 0,-10.92188 -6.25586,-15.26904 -17.07226,-15.26904 H 856.8584 v 31.70556 h 9.22558 z"
           class="st0"
           inkscape:connector-curvature="0"
           style="fill:#244397" /><path
           id="path133"
           d="m 980.17578,345.76318 c 0.84863,0 1.27441,0.63672 1.16699,1.69727 l -0.31836,5.30127 c 0,0.31836 -0.20996,0.74268 -0.84863,0.84863 l -3.07324,0.21192 h -0.9541 v 74.22754 h -7.95313 c -0.53125,0 -0.84863,-0.2129 -1.16699,-0.63672 l -43.36914,-60.6543 v 53.23144 h 0.9541 l 3.28711,0.21241 c 0.74219,0 1.0625,0.74218 0.9541,1.69726 l -0.31738,5.30127 c 0,0.53076 -0.31836,0.84864 -0.84961,0.84864 h -18.13184 c -0.84765,0 -1.27343,-0.63672 -1.16601,-1.69678 l 0.31836,-5.30176 c 0,-0.31836 0.20996,-0.74316 0.84765,-0.84863 l 3.07422,-0.2124 v -66.16797 l -3.28808,-0.21192 c -0.74024,0 -1.05957,-0.7417 -0.95215,-1.69677 l 0.31836,-5.30176 c 0,-0.53028 0.31836,-0.84863 0.84765,-0.84863 h 11.77051 c 0.63477,0 0.95313,0.31835 1.27246,0.74316 l 42.52051,59.38184 v -52.06592 l -3.28711,-0.21192 c -0.74219,0 -1.05859,-0.7417 -0.9541,-1.69677 l 0.31934,-5.30176 c 0,-0.53028 0.3164,-0.84863 0.84765,-0.84863 h 18.13086 z"
           class="st0"
           inkscape:connector-curvature="0"
           style="fill:#244397" /></g><g
         id="g135"><path
           id="path137"
           d="m 548.48682,508.56396 c 0.63574,0 0.90771,0.63575 0.81689,1.45215 l -0.27148,4.53711 c 0,0.45362 -0.27393,0.72559 -0.63477,0.72559 h -15.87988 c -0.72559,0 -1.08985,-0.54444 -0.99805,-1.45166 l 0.27246,-4.53662 c 0,-0.27198 0.18018,-0.63574 0.72559,-0.72656 l 2.54053,-0.18116 -3.53858,-10.07177 h -28.76514 l -3.35693,10.07177 2.81201,0.18116 c 0.63574,0 0.90869,0.63574 0.8169,1.45214 l -0.27198,4.53711 c 0,0.45362 -0.27197,0.72559 -0.72607,0.72559 h -15.33496 c -0.72559,0 -1.08936,-0.54444 -0.99756,-1.45166 l 0.27197,-4.53662 c 0,-0.27198 0.18067,-0.63574 0.72559,-0.72656 l 2.54101,-0.18116 20.32471,-56.62158 -2.72217,-0.18066 c -0.63427,0 -0.90673,-0.63526 -0.81591,-1.45264 l 0.27197,-4.53662 c 0,-0.4541 0.27246,-0.72559 0.72754,-0.72559 h 14.42578 l 24.31933,63.51709 2.7212,0.18115 z m -19.87207,-18.60058 -11.79541,-33.4834 h -0.0898 l -11.1626,33.4834 h 23.04786 z"
           class="st0"
           inkscape:connector-curvature="0"
           style="fill:#244397" /><path
           id="path139"
           d="m 606.01269,444.86572 c 0.72266,0 1.0879,0.54395 0.99708,1.45117 l -0.27442,4.53663 c 0,0.27246 -0.17773,0.63525 -0.72266,0.72705 l -2.63281,0.18066 h -0.27246 v 37.56641 c 0,18.32959 -7.16797,27.04004 -25.49805,27.04004 -17.5122,0 -25.13427,-5.89844 -25.13427,-27.04004 v -37.56641 l -2.8125,-0.18066 c -0.63574,0 -0.90772,-0.63526 -0.8169,-1.45264 l 0.27149,-4.53662 c 0,-0.4541 0.27343,-0.72559 0.72656,-0.72559 h 15.51562 c 0.72657,0 1.08936,0.54395 0.99903,1.45117 l -0.27246,4.53663 c 0,0.27246 -0.18116,0.63525 -0.72657,0.72705 l -2.63086,0.18066 v 39.38135 c 0,11.25195 3.35743,17.33154 14.79053,17.33154 12.70459,0 15.60694,-7.80371 15.60694,-17.33154 v -39.38135 l -2.8125,-0.18066 c -0.63526,0 -0.90723,-0.63526 -0.81641,-1.45264 l 0.27246,-4.53662 c 0,-0.4541 0.27197,-0.72559 0.7251,-0.72559 h 15.51806 z"
           class="st0"
           inkscape:connector-curvature="0"
           style="fill:#244397" /><path
           id="path141"
           d="m 657.45703,495.95166 c 0,11.43311 -8.43848,19.78076 -24.31934,19.78076 -8.52832,0 -15.333,-1.81494 -20.23437,-3.90088 v -10.97949 c 0,-0.81689 0.63672,-1.27197 1.72559,-1.18017 l 5.44238,0.36328 c 0.36328,0 0.81738,0.18115 0.9082,0.81689 l 0.18067,4.89893 c 4.2666,0.99902 8.53027,1.54248 11.43359,1.54248 8.25684,0 14.70019,-2.81201 14.70019,-10.34375 0,-8.07617 -3.083,-9.7085 -17.05761,-14.69922 -10.16504,-3.81153 -17.15039,-8.9834 -17.15039,-19.05567 0,-11.34228 8.62011,-18.87451 23.95507,-18.87451 5.62598,0 10.98047,0.54541 16.06153,1.81641 v 11.88623 c 0,0.8164 -0.63672,1.26953 -1.72364,1.17969 l -5.44531,-0.36328 c -0.36426,0 -0.81836,-0.18165 -0.9082,-0.81641 l -0.17969,-4.90039 c -2.45215,-0.27246 -4.90332,-0.45313 -7.16894,-0.45313 -8.44043,0 -13.97364,3.90088 -13.97364,10.16211 0,6.53369 3.81055,8.89307 16.23926,13.33838 12.97656,4.53711 17.51465,10.70703 17.51465,19.78174 z"
           class="st0"
           inkscape:connector-curvature="0"
           style="fill:#244397" /><path
           id="path143"
           d="m 712.98535,444.86572 v 11.07031 c 0,0.7251 -0.5459,1.08887 -1.45215,0.99805 l -4.5371,-0.27295 c -0.27149,0 -0.63575,-0.18115 -0.72364,-0.7251 l -0.18457,-2.63183 v -0.0903 h -13.79297 v 55.16894 l 2.8125,0.18115 c 0.63575,0 0.91016,0.63575 0.82032,1.45215 l -0.27442,4.53711 c 0,0.45361 -0.27148,0.72559 -0.72558,0.72559 h -15.51661 c -0.72461,0 -1.08789,-0.54444 -0.99609,-1.45166 l 0.27148,-4.53662 c 0,-0.27198 0.18067,-0.63575 0.72461,-0.72657 l 2.63184,-0.18115 V 453.2139 h -12.79395 l -0.18066,2.81201 c 0,0.63525 -0.63574,0.9082 -1.45117,0.81738 l -4.54004,-0.27295 c -0.45117,0 -0.72266,-0.27197 -0.72266,-0.72509 v -10.9795 h 50.63086 z"
           class="st0"
           inkscape:connector-curvature="0"
           style="fill:#244397" /><path
           id="path145"
           d="m 769.60059,508.56396 c 0.63574,0 0.9082,0.63575 0.81933,1.45215 l -0.27344,4.53711 c 0,0.45362 -0.27246,0.72559 -0.72754,0.72559 h -10.34277 l -15.42578,-27.22119 h -9.98047 v 20.32519 l 2.8125,0.18115 c 0.63477,0 0.90625,0.63575 0.81641,1.45215 l -0.27149,4.53711 c 0,0.45361 -0.27148,0.72559 -0.72753,0.72559 h -15.51563 c -0.72559,0 -1.08789,-0.54444 -1,-1.45166 l 0.27441,-4.53662 c 0,-0.27198 0.17969,-0.63575 0.72559,-0.72657 l 2.63184,-0.18115 v -56.62158 l -2.8125,-0.18066 c -0.63379,0 -0.90723,-0.63526 -0.81934,-1.45264 l 0.27441,-4.53662 c 0,-0.4541 0.27246,-0.72559 0.72559,-0.72559 h 20.50781 c 17.69434,0 26.04199,6.71485 26.04199,21.05078 0,9.16407 -4.80859,16.96875 -13.42968,20.23535 l 12.88671,22.23096 2.80958,0.18115 z m -28.03907,-28.58203 c 9.80176,0 15.42774,-4.26562 15.42774,-14.06543 0,-9.34619 -5.35157,-13.0664 -14.61036,-13.0664 h -8.70898 v 27.13183 h 7.8916 z"
           class="st0"
           inkscape:connector-curvature="0"
           style="fill:#244397" /><path
           id="path147"
           d="m 837.37988,508.56396 c 0.63477,0 0.90821,0.63575 0.81543,1.45215 l -0.26953,4.53711 c 0,0.45362 -0.27344,0.72559 -0.63672,0.72559 h -15.8789 c -0.72559,0 -1.08985,-0.54444 -0.99805,-1.45166 l 0.27246,-4.53662 c 0,-0.27198 0.17969,-0.63574 0.72559,-0.72656 l 2.54004,-0.18116 -3.53809,-10.07177 h -28.76465 l -3.35742,10.07177 2.81152,0.18116 c 0.63867,0 0.90918,0.63574 0.81641,1.45214 l -0.27051,4.53711 c 0,0.45362 -0.27344,0.72559 -0.72461,0.72559 h -15.33691 c -0.72461,0 -1.08887,-0.54444 -0.99707,-1.45166 l 0.27246,-4.53662 c 0,-0.27198 0.17969,-0.63574 0.72461,-0.72656 l 2.54199,-0.18116 20.32324,-56.62158 -2.7207,-0.18066 c -0.63672,0 -0.90625,-0.63526 -0.81738,-1.45264 l 0.27441,-4.53662 c 0,-0.4541 0.27051,-0.72559 0.72559,-0.72559 h 14.42578 l 24.31738,63.51709 2.72363,0.18115 z m -19.87207,-18.60058 -11.79687,-33.4834 h -0.0879 l -11.16602,33.4834 h 23.05078 z"
           class="st0"
           inkscape:connector-curvature="0"
           style="fill:#244397" /><path
           id="path149"
           d="m 888.19141,503.48291 c 0.45507,0 0.72363,0.27246 0.72363,0.72656 v 11.06934 H 844.9082 c -0.72656,0 -1.08789,-0.54444 -1,-1.45166 l 0.27344,-4.53662 c 0,-0.27198 0.18164,-0.63574 0.72656,-0.72656 l 2.63086,-0.18116 v -56.62158 l -2.8125,-0.18066 c -0.63281,0 -0.90625,-0.63526 -0.81836,-1.45264 l 0.27344,-4.53662 c 0,-0.4541 0.27148,-0.72559 0.72656,-0.72559 h 15.5166 c 0.72559,0 1.0879,0.54395 0.99707,1.45117 l -0.27148,4.53663 c 0,0.27246 -0.17969,0.63525 -0.72559,0.72705 l -2.63183,0.18066 v 55.0791 h 24.22656 l 0.18262,-2.81299 c 0,-0.63525 0.63379,-0.90673 1.45117,-0.81689 l 4.53809,0.27246 z"
           class="st0"
           inkscape:connector-curvature="0"
           style="fill:#244397" /><path
           id="path151"
           d="m 911.05176,508.56396 c 0.63574,0 0.9082,0.63575 0.81738,1.45215 l -0.27246,4.53711 c 0,0.45362 -0.27246,0.72559 -0.72656,0.72559 h -15.51465 c -0.72852,0 -1.08984,-0.54444 -1,-1.45166 l 0.27148,-4.53662 c 0,-0.27198 0.18164,-0.63574 0.72852,-0.72656 l 2.62988,-0.18116 v -56.62158 l -2.8125,-0.18066 c -0.63379,0 -0.90722,-0.63526 -0.81738,-1.45264 l 0.27148,-4.53662 c 0,-0.4541 0.27442,-0.72559 0.72852,-0.72559 h 15.51465 c 0.72656,0 1.08984,0.54395 0.99902,1.45117 l -0.27246,4.53663 c 0,0.27246 -0.18066,0.63525 -0.72656,0.72705 l -2.62989,0.18066 v 56.62158 l 2.81153,0.18115 z"
           class="st0"
           inkscape:connector-curvature="0"
           style="fill:#244397" /><path
           id="path153"
           d="m 980.55762,508.56396 c 0.63672,0 0.90625,0.63575 0.81738,1.45215 l -0.27344,4.53711 c 0,0.45362 -0.27246,0.72559 -0.63379,0.72559 h -15.88086 c -0.72363,0 -1.08886,-0.54444 -0.99804,-1.45166 l 0.27441,-4.53662 c 0,-0.27198 0.18164,-0.63574 0.72363,-0.72656 l 2.54102,-0.18116 -3.53906,-10.07177 h -28.76465 l -3.35547,10.07177 2.81152,0.18116 c 0.63575,0 0.90821,0.63574 0.81836,1.45214 l -0.27441,4.53711 c 0,0.45362 -0.26953,0.72559 -0.72461,0.72559 h -15.33496 c -0.72754,0 -1.09082,-0.54444 -0.99902,-1.45166 l 0.27148,-4.53662 c 0,-0.27198 0.18262,-0.63574 0.72754,-0.72656 l 2.54004,-0.18116 20.32422,-56.62158 -2.72071,-0.18066 c -0.63379,0 -0.90722,-0.63526 -0.81445,-1.45264 l 0.26758,-4.53662 c 0,-0.4541 0.27441,-0.72559 0.72851,-0.72559 h 14.42872 l 24.31835,63.51709 2.72071,0.18115 z m -19.8711,-18.60058 -11.7959,-33.4834 h -0.0898 l -11.16309,33.4834 h 23.04883 z"
           class="st0"
           inkscape:connector-curvature="0"
           style="fill:#244397" /></g></g><g
       id="g155"><g
         id="g157"><g
           id="g159"><path
             id="path161"
             d="m 371.62793,322.50488 h -4.6543 v -7.43701 h 4.55469 c 0.0439,0.1211 0.0772,0.35205 0.0772,0.66016 0,0.2417 -0.0225,0.45117 -0.0772,0.68213 h -2.98144 v 1.60595 h 2.51953 c 0.0439,0.1211 0.0771,0.34131 0.0771,0.64942 0,0.2417 -0.0225,0.43994 -0.0771,0.67089 h -2.51953 v 1.82618 h 3.08105 c 0.0439,0.12109 0.0762,0.35205 0.0762,0.66015 0,0.24219 -0.0215,0.45118 -0.0762,0.68213 z"
             class="st0"
             inkscape:connector-curvature="0"
             style="fill:#244397" /><path
             id="path163"
             d="m 378.31543,322.49365 c -0.28613,0.0444 -0.58301,0.0664 -0.92383,0.0664 -0.30859,0 -0.61621,-0.0112 -0.82519,-0.0552 l -1.50782,-2.67334 h -0.64843 v 2.67334 c -0.27539,0.0439 -0.50684,0.0552 -0.80371,0.0552 -0.26368,0 -0.49512,-0.0112 -0.76954,-0.0552 v -7.43701 c 0.50586,-0.0332 1.56153,-0.0552 2.2002,-0.0552 1.87012,0 2.80566,0.66016 2.80566,2.37647 0,0.91308 -0.55078,1.82617 -1.32031,2.15625 l 1.79297,2.94824 z m -3.17969,-6.19385 c -0.24219,0 -0.53906,0.0112 -0.72558,0.022 v 2.20068 h 0.5498 c 0.90234,0 1.29785,-0.33008 1.29785,-1.14453 0,-0.81397 -0.39551,-1.07813 -1.12207,-1.07813 z"
             class="st0"
             inkscape:connector-curvature="0"
             style="fill:#244397" /><path
             id="path165"
             d="m 383.75,322.50488 h -4.6543 v -7.43701 h 4.55469 c 0.0439,0.1211 0.0771,0.35205 0.0771,0.66016 0,0.2417 -0.0225,0.45117 -0.0771,0.68213 h -2.98144 v 1.60595 h 2.51953 c 0.0439,0.1211 0.0771,0.34131 0.0771,0.64942 0,0.2417 -0.0225,0.43994 -0.0771,0.67089 h -2.51953 v 1.82618 H 383.75 c 0.0439,0.12109 0.0762,0.35205 0.0762,0.66015 0,0.24219 -0.0215,0.45118 -0.0762,0.68213 z"
             class="st0"
             inkscape:connector-curvature="0"
             style="fill:#244397" /></g><g
           id="g167"><path
             id="path169"
             d="m 369.31738,330.09228 h -0.77051 v 2.6626 c -0.20898,0.0332 -0.46191,0.0552 -0.79199,0.0552 -0.29687,0 -0.57226,-0.022 -0.78125,-0.0552 v -7.42627 c 0.63867,-0.0327 1.60645,-0.0659 2.2334,-0.0659 1.6836,0 2.9043,0.58301 2.9043,2.33252 0,1.70508 -1.06739,2.49707 -2.79395,2.49707 z m -0.0439,-3.53125 c -0.22071,0 -0.50684,0.0107 -0.72656,0.022 v 2.18945 h 0.68261 c 0.84668,0 1.29785,-0.22021 1.29785,-1.12207 0,-0.77051 -0.38476,-1.08936 -1.2539,-1.08936 z"
             class="st0"
             inkscape:connector-curvature="0"
             style="fill:#244397" /><path
             id="path171"
             d="m 377.73633,332.75488 h -4.65332 v -7.43701 h 4.55469 c 0.0439,0.1211 0.0771,0.35205 0.0771,0.66016 0,0.2417 -0.0225,0.45117 -0.0771,0.68213 h -2.98145 v 1.60595 h 2.51856 c 0.0449,0.1211 0.0771,0.34131 0.0771,0.64942 0,0.2417 -0.0215,0.43994 -0.0771,0.67089 h -2.51856 v 1.82618 h 3.08008 c 0.0439,0.12109 0.0772,0.35205 0.0772,0.66015 0,0.24219 -0.0225,0.45118 -0.0772,0.68213 z"
             class="st0"
             inkscape:connector-curvature="0"
             style="fill:#244397" /><path
             id="path173"
             d="m 384.29883,332.74365 c -0.28516,0.0444 -0.58301,0.0664 -0.92383,0.0664 -0.30762,0 -0.61621,-0.0112 -0.8252,-0.0552 l -1.50683,-2.67334 h -0.64942 v 2.67334 c -0.27441,0.0439 -0.50585,0.0552 -0.80273,0.0552 -0.26465,0 -0.49512,-0.0112 -0.77051,-0.0552 v -7.43701 c 0.50586,-0.0332 1.5625,-0.0552 2.2002,-0.0552 1.87011,0 2.80566,0.66016 2.80566,2.37647 0,0.91308 -0.5498,1.82617 -1.32031,2.15625 l 1.79297,2.94824 z m -3.17871,-6.19385 c -0.24219,0 -0.53907,0.0112 -0.72657,0.022 v 2.20068 h 0.54981 c 0.90234,0 1.29883,-0.33008 1.29883,-1.14453 0,-0.81397 -0.39649,-1.07813 -1.12207,-1.07813 z"
             class="st0"
             inkscape:connector-curvature="0"
             style="fill:#244397" /></g></g><g
         id="g175"><g
           id="g177"><path
             id="path179"
             d="m 402.104,322.50488 c -0.14306,0.0332 -0.48388,0.0552 -0.84716,0.0552 -0.28614,0 -0.61622,-0.0332 -0.75879,-0.0552 l -0.5503,-1.50732 h -2.64062 l -0.51709,1.50732 c -0.2417,0.0332 -0.52783,0.0552 -0.81397,0.0552 -0.28613,0 -0.61621,-0.022 -0.78125,-0.0552 l 2.59668,-7.43701 c 0.15381,-0.0332 0.51709,-0.0552 0.75879,-0.0552 0.29737,0 0.64942,0.022 0.77051,0.0552 l 2.7832,7.43701 z m -2.62939,-2.8164 -0.64893,-2.10108 c -0.0771,-0.24219 -0.15429,-0.55029 -0.22021,-0.89111 h -0.022 c -0.0552,0.34082 -0.14306,0.64893 -0.22021,0.89111 l -0.61572,2.10108 h 1.72705 z"
             class="st0"
             inkscape:connector-curvature="0"
             style="fill:#244397" /><path
             id="path181"
             d="m 408.23047,322.49365 c -0.28565,0.0444 -0.58301,0.0664 -0.92383,0.0664 -0.3081,0 -0.61621,-0.0112 -0.82519,-0.0552 l -1.50733,-2.67334 h -0.64892 v 2.67334 c -0.27491,0.0439 -0.50635,0.0552 -0.80323,0.0552 -0.26416,0 -0.49511,-0.0112 -0.77002,-0.0552 v -7.43701 c 0.50586,-0.0332 1.56201,-0.0552 2.2002,-0.0552 1.87012,0 2.80566,0.66016 2.80566,2.37647 0,0.91308 -0.55029,1.82617 -1.32031,2.15625 l 1.79297,2.94824 z m -3.1792,-6.19385 c -0.24219,0 -0.53906,0.0112 -0.72607,0.022 v 2.20068 h 0.5498 c 0.90234,0 1.29834,-0.33008 1.29834,-1.14453 0,-0.81397 -0.396,-1.07813 -1.12207,-1.07813 z"
             class="st0"
             inkscape:connector-curvature="0"
             style="fill:#244397" /></g><g
           id="g183"><path
             id="path185"
             d="m 398.75342,326.66016 h -1.96924 v 6.09472 c -0.20898,0.0332 -0.50586,0.0552 -0.78076,0.0552 -0.27539,0 -0.57227,-0.022 -0.79248,-0.0552 v -6.09472 h -1.96924 c -0.0439,-0.14307 -0.0767,-0.48438 -0.0767,-0.67139 0,-0.18701 0.0439,-0.52783 0.0879,-0.6709 h 5.50049 c 0.0444,0.14307 0.0772,0.48389 0.0772,0.6709 0,0.18701 -0.0327,0.52832 -0.0772,0.67139 z"
             class="st0"
             inkscape:connector-curvature="0"
             style="fill:#244397" /><path
             id="path187"
             d="m 404.31201,332.75488 h -4.65381 v -7.43701 h 4.55469 c 0.0439,0.1211 0.0771,0.35205 0.0771,0.66016 0,0.2417 -0.0225,0.45117 -0.0771,0.68213 h -2.98144 v 1.60595 h 2.51904 c 0.0444,0.1211 0.0771,0.34131 0.0771,0.64942 0,0.2417 -0.022,0.43994 -0.0771,0.67089 h -2.51904 v 1.82618 h 3.08056 c 0.0439,0.12109 0.0767,0.35205 0.0767,0.66015 0,0.24219 -0.022,0.45118 -0.0767,0.68213 z"
             class="st0"
             inkscape:connector-curvature="0"
             style="fill:#244397" /><path
             id="path189"
             d="m 407.6084,332.86475 c -0.80322,0 -1.6836,-0.15381 -2.31055,-0.43994 -0.0332,-0.15381 -0.0552,-0.35206 -0.0552,-0.52784 0,-0.26416 0.0332,-0.51709 0.11035,-0.81445 0.64892,0.26416 1.50683,0.4292 2.17822,0.4292 0.78125,0 1.19922,-0.36328 1.19922,-0.85791 0,-0.55029 -0.35205,-0.78125 -1.41944,-1.11133 -1.18798,-0.36328 -2.05712,-0.93506 -2.05712,-2.21143 0,-1.36425 1.17724,-2.12304 2.72851,-2.12304 0.71485,0 1.35303,0.10986 1.78223,0.25293 0.0327,0.12109 0.0547,0.31885 0.0547,0.60498 0,0.20898 -0.022,0.52783 -0.0659,0.7041 -0.54981,-0.14307 -1.17725,-0.22022 -1.68311,-0.22022 -0.82519,0 -1.27636,0.2754 -1.27636,0.71534 0,0.51709 0.40722,0.72607 1.39746,1.03418 1.18799,0.37402 2.06836,0.93506 2.06836,2.25537 0,1.44091 -1.13331,2.31006 -2.65137,2.31006 z"
             class="st0"
             inkscape:connector-curvature="0"
             style="fill:#244397" /></g></g><g
         id="g191"><g
           id="g193"><path
             id="path195"
             d="m 292.1001,319.24853 c 0.16504,0.46192 0.33008,0.97901 0.40722,1.41895 h 0.022 c 0.0767,-0.43994 0.23095,-0.95703 0.39599,-1.41895 l 0.81397,-2.35449 c 0.20898,-0.60498 0.33008,-1.18799 0.34082,-1.82617 0.22021,-0.0332 0.52832,-0.0552 0.78125,-0.0552 0.23096,0 0.56103,0.022 0.75928,0.0552 0,0.73682 -0.13233,1.44092 -0.4292,2.22217 l -1.99121,5.21484 c -0.13184,0.0332 -0.43994,0.0552 -0.70411,0.0552 -0.29687,0 -0.53906,-0.022 -0.7373,-0.0552 l -1.95801,-5.19287 c -0.29736,-0.78076 -0.4292,-1.50732 -0.4292,-2.24414 0.19824,-0.0332 0.46192,-0.0552 0.79199,-0.0552 0.25342,0 0.57227,0.022 0.77051,0.0552 0,0.68213 0.12061,1.22119 0.32959,1.82617 l 0.83643,2.35449 z"
             class="st0"
             inkscape:connector-curvature="0"
             style="fill:#244397" /><path
             id="path197"
             d="m 298.18262,322.50488 c -0.20899,0.0332 -0.46192,0.0552 -0.792,0.0552 -0.29736,0 -0.57226,-0.022 -0.78125,-0.0552 v -7.43701 c 0.20899,-0.0332 0.51709,-0.0552 0.792,-0.0552 0.3081,0 0.583,0.022 0.78125,0.0552 v 7.43701 z"
             class="st0"
             inkscape:connector-curvature="0"
             style="fill:#244397" /><path
             id="path199"
             d="m 304.68408,316.41016 h -1.96924 v 6.09472 c -0.20898,0.0332 -0.50586,0.0552 -0.78076,0.0552 -0.27539,0 -0.57226,-0.022 -0.79248,-0.0552 v -6.09472 h -1.96924 c -0.0439,-0.14307 -0.0771,-0.48438 -0.0771,-0.67139 0,-0.18701 0.0444,-0.52783 0.0884,-0.6709 h 5.50049 c 0.0439,0.14307 0.0772,0.48389 0.0772,0.6709 0,0.18701 -0.0332,0.52832 -0.0772,0.67139 z"
             class="st0"
             inkscape:connector-curvature="0"
             style="fill:#244397" /></g><g
           id="g201"><path
             id="path203"
             d="m 295.73584,332.75488 c -0.14307,0.0332 -0.48389,0.0552 -0.84717,0.0552 -0.28613,0 -0.61621,-0.0332 -0.75928,-0.0552 l -0.5498,-1.50732 h -2.64063 l -0.51709,1.50732 c -0.24169,0.0332 -0.52783,0.0552 -0.81396,0.0552 -0.28613,0 -0.61621,-0.022 -0.78125,-0.0552 l 2.59668,-7.43701 c 0.15381,-0.0332 0.51709,-0.0552 0.75879,-0.0552 0.29736,0 0.64941,0.022 0.77051,0.0552 l 2.7832,7.43701 z m -2.6294,-2.8164 -0.64892,-2.10108 c -0.0771,-0.24219 -0.1543,-0.55029 -0.22022,-0.89111 h -0.022 c -0.0552,0.34082 -0.14306,0.64893 -0.22021,0.89111 l -0.61573,2.10108 h 1.72705 z"
             class="st0"
             inkscape:connector-curvature="0"
             style="fill:#244397" /><path
             id="path205"
             d="m 304.12891,332.75488 c -0.13184,0.0332 -0.4292,0.0552 -0.73682,0.0552 -0.33008,0 -0.63818,-0.0332 -0.77051,-0.0552 l -0.13183,-4.46679 -1.62842,3.76269 c -0.12061,0.044 -0.38477,0.0659 -0.54981,0.0659 -0.19824,0 -0.43994,-0.022 -0.56103,-0.0547 l -1.62842,-3.77392 -0.14307,4.46679 c -0.14306,0.0332 -0.48388,0.0552 -0.78076,0.0552 -0.17627,0 -0.47314,-0.022 -0.67139,-0.0552 l 0.31934,-7.43701 c 0.20899,-0.022 0.41797,-0.0552 0.6377,-0.0552 0.26416,0 0.51709,0.022 0.64941,0.0552 l 2.17822,5.04981 2.18946,-5.04981 c 0.21972,-0.0332 0.43994,-0.0552 0.63769,-0.0552 0.25342,0 0.48438,0.022 0.64942,0.0552 l 0.34082,7.43701 z"
             class="st0"
             inkscape:connector-curvature="0"
             style="fill:#244397" /></g></g><g
         id="g207"><g
           id="g209"><path
             id="path211"
             d="m 320.18164,322.50488 h -4.65381 v -7.43701 h 4.55469 c 0.0439,0.1211 0.0767,0.35205 0.0767,0.66016 0,0.2417 -0.022,0.45117 -0.0767,0.68213 h -2.98145 v 1.60595 h 2.51905 c 0.0444,0.1211 0.0772,0.34131 0.0772,0.64942 0,0.2417 -0.022,0.43994 -0.0772,0.67089 h -2.51905 v 1.82618 h 3.08057 c 0.0439,0.12109 0.0767,0.35205 0.0767,0.66015 0,0.24219 -0.022,0.45118 -0.0767,0.68213 z"
             class="st0"
             inkscape:connector-curvature="0"
             style="fill:#244397" /><path
             id="path213"
             d="m 321.91748,320.4917 1.4082,-1.91455 -1.28711,-1.79297 c -0.41797,-0.57227 -0.68212,-1.1001 -0.77002,-1.71631 0.17579,-0.0332 0.53907,-0.0552 0.77002,-0.0552 0.27491,0 0.59424,0.022 0.78125,0.0552 0.0547,0.48389 0.33008,0.87988 0.61573,1.29834 l 0.77051,1.12207 0.79199,-1.11133 c 0.26416,-0.37402 0.51709,-0.84717 0.56103,-1.30908 0.18701,-0.022 0.51709,-0.0552 0.78125,-0.0552 0.2417,0 0.57178,0.022 0.74805,0.0552 -0.0879,0.7041 -0.37402,1.24316 -0.8252,1.87012 l -1.16601,1.60644 1.4082,1.97998 c 0.49512,0.68213 0.72607,1.35352 0.77002,1.98047 -0.18701,0.0332 -0.50635,0.0552 -0.78125,0.0552 -0.24219,0 -0.56103,-0.022 -0.77002,-0.0552 -0.0332,-0.48389 -0.19824,-0.94629 -0.47314,-1.36426 l -1.04493,-1.57324 -1.02343,1.54053 c -0.26368,0.40674 -0.41797,0.91308 -0.41797,1.39697 -0.17578,0.0332 -0.54981,0.0552 -0.79199,0.0552 -0.26416,0 -0.58301,-0.0332 -0.77002,-0.0552 0.022,-0.6709 0.14306,-1.23242 0.71484,-2.01318 z"
             class="st0"
             inkscape:connector-curvature="0"
             style="fill:#244397" /><path
             id="path215"
             d="m 332.84277,316.61914 c -0.52832,-0.16504 -1.18847,-0.28613 -1.71631,-0.28613 -1.25439,0 -2.06836,0.89111 -2.06836,2.48633 0,1.46337 0.63819,2.42041 2.05713,2.42041 0.52832,0 1.12256,-0.10987 1.65039,-0.27491 0.0771,0.19776 0.13184,0.50586 0.13184,0.73682 0,0.18701 -0.0107,0.41797 -0.0327,0.51709 -0.5503,0.25293 -1.2544,0.396 -1.90332,0.396 -2.36524,0 -3.53174,-1.43018 -3.53174,-3.76221 0,-2.2666 1.25439,-3.89453 3.59765,-3.89453 0.57227,0 1.32032,0.14258 1.84815,0.37402 0.0332,0.10986 0.0439,0.35205 0.0439,0.49512 0,0.34082 -0.0439,0.65967 -0.0767,0.79199 z"
             class="st0"
             inkscape:connector-curvature="0"
             style="fill:#244397" /></g><g
           id="g217"><path
             id="path219"
             d="m 318.02002,332.86475 c -2.03565,0 -3.11377,-1.40821 -3.11377,-3.82862 0,-2.41992 1.07812,-3.82812 3.11377,-3.82812 2.03516,0 3.11328,1.4082 3.11328,3.82812 0,2.42041 -1.07812,3.82862 -3.11328,3.82862 z m 0,-6.30372 c -0.94629,0 -1.48535,0.72608 -1.48535,2.4751 0,1.74951 0.53906,2.47559 1.48535,2.47559 0.9458,0 1.48486,-0.72607 1.48486,-2.47559 0,-1.74902 -0.53906,-2.4751 -1.48486,-2.4751 z"
             class="st0"
             inkscape:connector-curvature="0"
             style="fill:#244397" /><path
             id="path221"
             d="m 326.57227,332.75488 h -4.55469 v -7.43701 c 0.20898,-0.0332 0.49511,-0.0552 0.77002,-0.0552 0.3081,0 0.60498,0.022 0.80322,0.0552 v 6.09473 h 2.98145 c 0.0439,0.12109 0.0771,0.35205 0.0771,0.66015 0,0.24219 -0.0225,0.45118 -0.0771,0.68213 z"
             class="st0"
             inkscape:connector-curvature="0"
             style="fill:#244397" /><path
             id="path223"
             d="m 332.82617,329.92725 c 0,1.89257 -0.72607,2.9375 -2.83838,2.9375 -2.13427,0 -2.80566,-1.04493 -2.80566,-2.9375 v -4.60938 c 0.22021,-0.0332 0.50635,-0.0552 0.77002,-0.0552 0.3081,0 0.5835,0.022 0.80322,0.0552 v 4.71973 c 0,1.0122 0.28614,1.58398 1.24317,1.58398 0.95703,0 1.2871,-0.57178 1.2871,-1.58398 v -4.71973 c 0.19825,-0.0332 0.52832,-0.0552 0.78125,-0.0552 0.24219,0 0.57227,0.022 0.75928,0.0552 v 4.60938 z"
             class="st0"
             inkscape:connector-curvature="0"
             style="fill:#244397" /></g></g></g></g></svg>